<?xml version="1.0" encoding="UTF-8" standalone="no"?>
<svg
   width="297mm"
   height="210mm"
   viewBox="0 0 297 210"
   version="1.1"
   id="svg1123"
   sodipodi:docname="header.svg"
   inkscape:version="1.2.1 (9c6d41e410, 2022-07-14)"
   xmlns:inkscape="http://www.inkscape.org/namespaces/inkscape"
   xmlns:sodipodi="http://sodipodi.sourceforge.net/DTD/sodipodi-0.dtd"
   xmlns:xlink="http://www.w3.org/1999/xlink"
   xmlns="http://www.w3.org/2000/svg"
   xmlns:svg="http://www.w3.org/2000/svg">
  <defs
     id="defs1127">
    <linearGradient
       inkscape:collect="always"
       id="linearGradient3476">
      <stop
         style="stop-color:#00ffd7;stop-opacity:1;"
         offset="0"
         id="stop3472" />
      <stop
         style="stop-color:#4c3adf;stop-opacity:1;"
         offset="0.5"
         id="stop4206" />
      <stop
         style="stop-color:#ff007c;stop-opacity:1;"
         offset="0.75"
         id="stop7149" />
      <stop
         style="stop-color:#fffe00;stop-opacity:1;"
         offset="0.875"
         id="stop9387" />
      <stop
         style="stop-color:#ff0041;stop-opacity:1;"
         offset="1"
         id="stop3474" />
    </linearGradient>
    <linearGradient
       inkscape:collect="always"
       xlink:href="#linearGradient3476"
       id="linearGradient3478"
       x1="21.948387"
       y1="70.451614"
       x2="144.96774"
       y2="69.909676"
       gradientUnits="userSpaceOnUse" />
  </defs>
  <sodipodi:namedview
     id="namedview1125"
     pagecolor="#505050"
     bordercolor="#ffffff"
     borderopacity="1"
     inkscape:showpageshadow="0"
     inkscape:pageopacity="0"
     inkscape:pagecheckerboard="1"
     inkscape:deskcolor="#505050"
     inkscape:document-units="mm"
     showgrid="false"
     inkscape:zoom="0.97643849"
     inkscape:cx="314.91999"
     inkscape:cy="24.067056"
     inkscape:window-width="1920"
     inkscape:window-height="991"
     inkscape:window-x="-9"
     inkscape:window-y="-9"
     inkscape:window-maximized="1"
     inkscape:current-layer="svg1123" />
  <g
     fill="#222b00"
     id="g1105">
    <path
       d="M98.994 142.533c1.75 1.128 2.578 1.687 5.123 2.813.502.222 1.074.234 1.617.309 2.471.337 4.875.134 7.348-.067 4.405-.425 8.744-1.307 13.097-2.081.354-.06.708-.118 1.063-.177l-3.209-2.255-1.035.2c-4.284.866-8.57 1.77-12.932 2.146-2.146.143-3.198.286-5.32.154a18.382 18.382 0 01-2.072-.257c-.55-.097-1.924-.874-1.625-.4.491.776 1.55.982 2.313 1.49.213.141-.44-.262-.66-.393l-3.708-1.482zM140.582 146.43c.082 4.234.07 8.47.087 12.706.038 3.402-.079 6.807.048 10.207.056 1.5.228 3.822.332 5.327.34 4.293.43 8.598.839 12.885.27 2.54.435 5.088.514 7.64.02.937.013.488.024 1.347l3.542 1.803c-.027-.873-.01-.417-.05-1.368a127.939 127.939 0 00-.594-7.706c-.45-4.298-.622-8.615-.942-12.924-.117-1.602-.285-3.71-.343-5.31-.122-3.397.013-6.8-.04-10.197.016-4.206.003-8.412.086-12.618l-3.503-1.793z"
       id="path1089" />
    <g
       transform="matrix(1.01134 0 0 1.01607 224.897 28.526)"
       id="g1103">
      <circle
         cx="-117.84"
         cy="78.313"
         r=".049"
         stroke="#000"
         stroke-width=".265"
         id="circle1091" />
      <path
         d="M-112.614 113.674a165.672 165.672 0 00-.243 6.865c-.04 2.087-.06 4.174-.073 6.26-.005 1.429-.01 2.857-.005 4.286a42.84 42.84 0 01-.244 5.252c-.168 1.245-.368 2.514-.84 3.684-.295.647-.726 1.19-1.224 1.688l3.356 2.05c.518-.545.989-1.127 1.307-1.815.49-1.208.68-2.52.844-3.807.185-1.751.311-3.514.288-5.276.005-1.43-.004-2.86-.008-4.291-.008-2.094-.015-4.188.016-6.281.05-2.264.082-4.535.324-6.788l-3.498-1.827z"
         id="path1093" />
      <path
         d="M-115.871 145.166c1.548-.156 3.1-.226 4.646-.402 1.407-.201 2.834-.169 4.245-.322 1.403-.193 2.819-.258 4.233-.301.917-.019.469-.012 1.345-.022l-3.177-2.3c-.87.02-.425.008-1.338.035-1.422.052-2.844.13-4.256.315-1.412.116-2.832.145-4.237.335-1.56.173-3.127.245-4.69.376l3.229 2.286z"
         id="path1095" />
      <path
         d="M-106.669 129.576c.044 2.27.049 4.541.055 6.812.001.5.003 1 .002 1.501 0 .831-.037 1.662-.02 2.493.004.214-.122.513.05.64 3.563 2.645 2.843 3.126 4.15 1.452 1.378-2.337 3.037-4.48 4.799-6.536.582-.503 1.146-1.729 2.086-1.69.177.007.642.298.483.22-.976-.488-1.89-1.138-2.938-1.445-.247-.072.234.458.352.687.55 1.593.595 3.29.626 4.959-.027 2.092.337 1.81 3.653 3.042.206.077.28-.34.403-.523.417-.62.772-1.278 1.16-1.915 1.412-2.13 2.754-4.415 4.663-6.153.258-.234.547-.432.82-.648.58-.31.731-.561 1.394-.32.218.08.794.48.578.392-.923-.38-1.722-1.149-2.713-1.27-.379-.046.39.659.548 1.006.166.36.282.74.422 1.11.65 1.992.805 4.087.875 6.166l3.48 1.756c-.093-2.117-.24-4.253-.862-6.292-.074-.214-.678-2.053-.884-2.23-.262-.224-3.613-3.483-5.388-2.826-.268.1-.487.302-.73.453-2.261 1.939-3.882 4.456-5.51 6.924-.41.603-.777 1.237-1.225 1.812-.072.091-.348.164-.257.235 7.019 5.417 3.232 2.894 3.068 1.679-.028-.21-.009-.422-.013-.633-.036-1.711-.08-3.441-.561-5.098-.79-2.117-.219-1.06-4.09-3.249-.176-.1-.409-.068-.605-.022-.965.226-1.483 1.257-2.122 1.896-1.73 2.08-3.38 4.226-4.871 6.486-1.157 1.084-.85.603 2.728 2.308.19.09-.11-.41-.126-.619-.108-1.33.048-2.68-.019-4.012.007-2.252.012-4.505.055-6.756l-3.516-1.792z"
         id="path1097" />
      <path
         d="M-79.742 139.097c.603-1.767 1.416-3.445 2.475-4.98.87-1.09 2.153-1.373 3.484-1.389.268.034 1.066.124 1.332.2.191.055.722.331.55.23-5.246-3.095-2.977-1.777-1.898-.816.91.845 1.246 1.883 1.412 3.075.135 1.34.137 2.683.005 4.021-.086.976-.368 1.917-.53 2.88-.08.507-.108 1.019-.13 1.53l3.516 1.81c.017-.498.036-.997.105-1.49.147-.978.429-1.93.516-2.915.134-1.364.152-2.732.034-4.098-.134-1.254-.389-2.385-1.303-3.322-1.798-1.819-4.18-3.364-6.79-3.393-1.435.108-2.77.494-3.669 1.701-1.041 1.571-1.834 3.276-2.548 5.019l3.44 1.937zM-63.082 135.734c.216-.319.422-.646.65-.956.31-.424.645-.83.967-1.247 1.04-1.346 2.052-2.77 3.46-3.769.405-.288.87-.484 1.305-.725 1.303-.205 1.42-.391 2.697.07.423.153 1.619.782 1.196.626-.761-.28-1.407-1.038-2.218-1.002-.455.02.619.676.859 1.063.24.386.379.826.568 1.24.103.454.27.9.31 1.364.203 2.416-.988 4.935-2.295 6.889-.394.589-.862 1.125-1.294 1.687-1.706 1.897-3.767 3.696-6.312 4.337-.513.13-1.05.233-1.578.188-.464-.039-.886-.288-1.33-.433.78.337 1.495 1.097 2.34 1.01.424-.043-.347-.786-.417-1.206-.079-.475-.063-.964-.022-1.443.139-1.64.776-2.806 1.578-4.195l.865-1.1-3.288-1.958-.878 1.153c-.263.455-.559.892-.787 1.365-.667 1.38-1.083 2.987-.932 4.532.046.476-.027 1.075.326 1.397 1.251 1.14 2.835 1.85 4.253 2.775.467.099.924.292 1.402.295 2.32.016 4.95-1.77 6.565-3.28.508-.476.952-1.017 1.428-1.525.443-.575.921-1.123 1.327-1.724 1.324-1.96 2.607-4.672 2.493-7.098-.023-.485-.182-.954-.273-1.431-.177-.442-.3-.91-.53-1.327-1.115-2.023-3.12-2.733-5.16-3.962-1.359-.819-2.612-.852-4.093-.385-.443.267-.913.492-1.328.8-2.157 1.607-3.531 4.03-5.278 6.026l3.424 1.95z"
         id="path1099" />
      <path
         d="M-49.63 142.145c2.45-5.988 5.815-11.527 8.992-17.143.39-.742.93-1.69 1.235-2.506.081-.218.353-.521.178-.675-1.04-.908-2.215-1.706-3.495-2.224-.248-.1-.385.375-.542.592-.21.288-.367.609-.55.913-.176.491-.403.967-.528 1.474-.68 2.75-.434 6.308.077 9.074.144.777.353 1.54.53 2.31.228 1.485.884 2.867 1.17 4.337.398 2.04.561 4.646-.525 6.535-.298.52-.82.874-1.23 1.31-1.308.59-1.478.883-2.935.727-.451-.048-1.657-.663-1.313-.367 4.93 4.237 1.734.673 1.671.277-.067-.426.165-.847.247-1.27.286-.506.523-1.043.86-1.517 1.338-1.89 3.24-3.34 4.993-4.814 2.676-2.251 1.203-.947 3.76-3.304 2.326-2.163 4.725-4.313 6.36-7.067.72-1.571 1.817-2.612-2.64-2.331-.48.03.367.89.56 1.33.234.532.48 1.057.72 1.585 1.372 2.765 2.995 5.392 4.664 7.984.98 1.772 1.72 3.83 1.099 5.865-.476 1.557-.988 1.903-2.019 3.112-.508.322-.968.736-1.523.966-.867.36-2.163.458-3.077.186-.407-.12-1.522-.732-1.114-.616 2.882.816 2.736 2.095 2.38-.158.168-.498.266-1.026.502-1.496 1.058-2.107 2.877-3.768 4.339-5.572 1.555-1.92 2.132-2.846 3.52-4.87a38.394 38.394 0 003.446-6.477c.49-1.187.852-2.417 1.349-3.6-1.112-.449-2.138-1.34-3.336-1.344-.448-.002.128.885.16 1.331.097 1.313.066 2.632.146 3.945.086 1.41.271 3.017.42 4.425.201 1.123.399 2.536.798 3.626.987 2.693 3.213 4.549 6.663 3.821 1.138-.24 1.436-1.83 2.153-2.745.718-1.423 1.533-2.801 2.152-4.27 1.53-3.627 3.132-8.981 4.2-12.694a276.207 276.207 0 003.336-12.854c.404-1.748.75-3.51 1.125-5.264.268-1.43.557-2.857.803-4.292.263-1.53.652-3.91.69-5.575.008-.336.19-.85-.11-1.003-4.637-2.355-3.844-1.814-5.011 1.506-.335 1.23-.72 2.446-1.003 3.688-2.26 9.892-2.585 20.112-2.765 30.213.05 4.25-.048 8.529.458 12.76.156 1.304.422 3.224 1.148 4.425.261.432.71.718 1.065 1.077 1.604.511 3.13 1.57 4.813 1.533.77-.017 1.134-1.056 1.595-1.674.551-.739.988-1.558 1.422-2.371 1.195-2.24 2.027-4.621 2.834-7.018.337-.97.501-1.988.79-2.971.086-.293.121-.619.302-.865.122-.166.342-.264.547-.29.296-.035 2.436.328 2.466.332.813-.083 1.748.185 2.44-.25 2.739-1.72 7-7.356 8.564-9.636 2.923-4.259 5.574-9.258 7.823-13.902 1.014-2.093 1.91-4.24 2.866-6.361 1.799-4.431 3.42-8.985 4.036-13.753.212-1.638.274-3.575.026-5.234-.088-.586-.294-1.147-.44-1.72-1.2-1.933-1.55-2.993-5.206-2.868-.877.03-1.227 1.263-1.749 1.969-2.776 3.755-4.35 8.141-6.049 12.438-2.53 6.777-4.57 13.743-5.942 20.85-.708 3.666-.885 5.425-1.363 9.07-.548 4.445-.612 8.994.31 13.397.445 2.12.725 2.682 1.448 4.667.302.627.543 1.288.905 1.882 1.594 2.614 4.847 4.4 7.47 5.544 1.276.556 2.932-.013 4.146-.264.755-.327 1.566-.547 2.266-.98 3.593-2.219 5.949-6.456 7.213-10.361.34-1.05.542-2.14.814-3.21.451-2.709 1.381-7.729-.702-10.071-.246-.276-.59-.446-.885-.67-1.435-.7-2.8-1.572-4.305-2.103-.323-.114-.696.077-1.002.23-1.657.828-2.216 2.893-2.716 4.495-.062.51-.187 1.017-.186 1.531.004 1.388.369 2.688.788 4 .755 2.364 1.829 4.578 2.918 6.8.887 1.554 1.358 2.543 2.512 3.919 2.121 2.528 5 4.318 8.202 5.212.62.173 1.258-.27 1.887-.405 2.409-.948 4.182-2.756 5.732-4.76l-3.331-1.978c-1.45 1.972-3.127 3.73-5.493 4.576l-1.786.27c.475.449 1.99 1.022 1.424 1.348-.588.34-1.107-.79-1.62-1.235-1.759-1.522-3.096-3.355-4.156-5.42-1.092-2.196-2.172-4.38-2.922-6.723-.384-1.198-.756-2.553-.774-3.832-.007-.491.105-.977.158-1.466.386-1.247.733-2.582 1.705-3.531.243-.236.522-.451.838-.574.284-.11 1.103.128.907-.105-.62-.74-1.588-1.103-2.382-1.654.32.18.687.293.96.538.701.627 1.066 1.575 1.27 2.46.564 2.464.194 4.982-.208 7.436-.26 1.058-.448 2.136-.78 3.174-1.243 3.88-3.522 7.946-7.159 10.053-.698.404-1.497.598-2.246.897-.716.113-1.423.335-2.149.34-.636.005-1.679-.913-1.882-.31-.206.61 1.17 1.46 1.642 1.021.464-.43-1.054-.707-1.51-1.145-1.277-1.227-1.391-1.788-2.193-3.362-.762-1.977-1.045-2.512-1.532-4.63-1.01-4.389-1-8.933-.528-13.39.46-3.84.565-5.204 1.281-9.08 1.312-7.103 3.294-14.079 5.856-20.83 1.649-3.958 2.188-5.687 4.317-9.267.594-1 1.247-1.97 1.985-2.868.51-.62 1.83-.864 1.74-1.66-.11-.976-1.359-1.434-2.153-2.011-.349-.254.53.682.795 1.022.177.562.417 1.107.53 1.685.321 1.628.325 3.613.172 5.232-.451 4.793-1.931 9.398-3.651 13.867-.922 2.133-1.771 4.298-2.764 6.398-2.215 4.685-4.819 9.597-7.846 13.817-1.896 2.644-5.699 7.384-8.905 9.078-.733.388-1.656.077-2.484.115-.655-.093-1.98-.388-2.71-.15-.265.086-.503.29-.656.524-.173.268-.198.607-.276.916-.248.993-.374 2.015-.681 2.994-.952 3.041-2.152 6.729-4.166 9.236-.44.549-1.604.739-1.544 1.44.08.928 1.234 1.396 1.85 2.094-.395-.315-.891-.535-1.187-.946-.807-1.12-1.156-3.154-1.346-4.4-.65-4.256-.643-8.585-.77-12.875.018-2.036-.002-4.073.056-6.109.264-9.261 1.104-18.644 4.018-27.488C.22 92.1.92 92.545-2.757 90.13c-.286-.188.262.645.287.987.056.757.012 1.52-.047 2.276-.198 2.54-.687 5.224-1.084 7.721-.34 1.77-.644 3.546-1.021 5.307-.871 4.068-2.083 8.914-3.247 12.88-1.164 3.966-2.676 8.706-4.415 12.503-.653 1.425-1.504 2.749-2.256 4.123-3.359 3.757-2.387 1.062-.58 4.846.204.428-.71-.643-.985-1.03-1.045-1.47-1.287-3.292-1.623-5.01-.175-1.514-.355-2.87-.434-4.397-.034-.643-.048-3.163-.055-3.915-.004-.461.314-1.06-.015-1.384-1.017-.998-2.436-1.48-3.654-2.219-.395 1.223-.731 2.463-1.195 3.663a35.118 35.118 0 01-3.322 6.466c-1.524 2.237-1.774 2.719-3.524 4.816-1.525 1.827-3.377 3.505-4.518 5.631-.275.512-.415 1.085-.623 1.628.186 2.915-.262 1.43 4.07 4.263 1.26.824 3.05.686 4.361.071.573-.268 1.047-.71 1.57-1.064 1.084-1.285 1.604-1.649 2.138-3.281.682-2.084.054-4.225-.921-6.09-1.69-2.582-3.348-5.193-4.737-7.953-.23-.519-.47-1.034-.69-1.557-.177-.42-.166-.962-.501-1.27-3.908-3.591-3.258-3.612-4.267-1.278-1.525 2.765-3.864 4.915-6.136 7.066-2.408 2.22-1.212 1.17-3.745 3.293-1.798 1.508-3.736 2.964-5.137 4.878-.365.5-.636 1.062-.954 1.593-.134.504-.429.991-.403 1.512.02.402.208.846.532 1.086 1.891 1.396 4.65 3.451 7.285 2.6.541-.175 1.008-.529 1.512-.793.426-.487.965-.896 1.28-1.461 1.086-1.947 1.005-4.63.615-6.74-.273-1.471-.961-2.845-1.19-4.328-.182-.76-.398-1.514-.546-2.281-.527-2.733-.807-6.144-.073-8.86.128-.475.36-.915.541-1.373.18-.266.331-.556.542-.8.884-1.022 5.127 1.272-2.757-2.284-.196-.088-.035.432-.095.639-.233.803-.76 1.825-1.094 2.538-2.984 5.738-6.197 11.354-9.14 17.114l3.378 1.883z"
         id="path1101" />
    </g>
  </g>
  <circle
     cx="331.354"
     cy="164.754"
     r=".049"
     fill="#00ff74"
     stroke="#000"
     stroke-width=".265"
     id="circle1107" />
  <g
     id="g6419">
    <g
       id="g3470"
       style="mix-blend-mode:darken;fill:url(#linearGradient3478);fill-opacity:1">
      <g
         id="g1714"
         style="fill:url(#linearGradient3478);fill-opacity:1;stroke:none;stroke-opacity:1">
        <g
           fill="#222b00"
           id="g1115"
           style="fill:url(#linearGradient3478);fill-opacity:1;stroke:none;stroke-opacity:1">
          <path
             d="m 21.035,52.392 c 0.52,3.481 0.87,6.983 1.226,10.483 0.321,3.109 0.979,6.167 1.437,9.256 0.076,1.261 0.497,2.45 0.783,3.669 l 3.591,1.736 c -0.276,-1.23 -0.742,-2.41 -0.858,-3.674 -0.517,-3.097 -1.204,-6.167 -1.551,-9.29 -0.354,-3.465 -0.744,-6.928 -1.04,-10.4 z"
             id="path1109"
             style="fill:url(#linearGradient3478);fill-opacity:1;stroke:none;stroke-opacity:1" />
          <path
             id="path1111"
             style="fill:url(#linearGradient3478);fill-opacity:1;stroke:none;stroke-opacity:1"
             d="m 73.28855,31.006893 c -0.0053,0.0065 -0.0024,0.03018 0.01137,0.07493 0.188959,0.613692 0.358657,1.122505 0.519348,1.588533 0.0027,-0.195011 -0.0015,-0.389981 -0.01912,-0.58446 -0.02975,-0.326375 -0.474573,-1.124436 -0.511596,-1.079004 z m 0.530717,1.663464 c -7.32e-4,0.05373 -0.0032,0.107481 -0.0052,0.161231 -0.648596,0.382942 -1.305117,0.919078 -1.878955,1.577164 -1.417997,1.625997 -1.292386,4.125226 -1.938383,6.18722 -0.691997,2.924991 -1.456912,5.834217 -2.077909,8.776208 -0.706,3.341991 -1.317727,6.704679 -1.902727,10.06967 -0.226907,1.306184 -0.445614,2.629505 -0.660941,3.955314 -0.709931,1.273832 -1.479971,2.504567 -2.313554,3.681946 -0.03991,-0.04478 -0.07603,-0.09296 -0.116789,-0.136943 -1.172003,-0.467067 -2.276608,-1.187538 -3.511413,-1.426269 -0.05147,-0.0278 -0.104305,-0.05348 -0.155546,-0.08165 0.03037,0.02423 0.06308,0.04575 0.09457,0.06873 -0.02708,-0.0049 -0.0534,-0.01268 -0.08062,-0.01705 -0.315997,-0.051 0.133106,0.640226 0.296106,0.916223 0.229,0.39 0.539829,0.730066 0.857829,1.050066 0.318568,0.320887 0.676211,0.619892 1.058333,0.901753 0.03168,0.05576 0.08253,0.137974 0.105937,0.181901 0.04486,0.08392 0.08421,0.17042 0.128158,0.254765 -0.764197,0.881061 -1.591787,1.709575 -2.365231,2.583305 -2.395991,1.640994 -3.335993,2.679115 -6.179984,3.240112 -0.879997,0.173 -1.795795,0.110018 -2.690792,0.04703 -0.857997,-0.06 -1.755168,-0.751995 -2.548165,-0.415995 -0.454997,0.191997 1.509962,1.224132 1.046965,1.052132 -0.601,-0.225 -0.995969,-0.813081 -1.493966,-1.220081 -0.32,-0.484997 -0.699148,-0.936242 -0.960148,-1.456242 -0.378609,-0.753839 -0.621587,-1.59163 -0.734322,-2.448946 l 0.379821,0.260966 c 3.989774,-1.40206 7.169544,-4.361938 10.308415,-7.099825 1.140997,-1.077997 1.763014,-1.622854 2.790011,-2.738851 0.530997,-0.575997 1.454311,-1.415361 1.119311,-2.338358 -0.063,-0.172 -0.216011,-0.295901 -0.324011,-0.443901 -1.362997,-0.711997 -2.677159,-1.526756 -4.089156,-2.134753 -0.312,-0.135 -1.819937,0.05378 -2.047937,0.08578 -1.349997,0.192997 -2.519835,0.62387 -3.770829,1.151867 -0.426,0.254 -0.872411,0.475261 -1.276408,0.763261 -2.181994,1.551997 -4.005725,3.673751 -5.493722,5.879745 -0.209997,0.401997 -0.467835,0.780094 -0.626835,1.205094 -0.737997,1.967994 -0.592193,4.321781 0.286804,6.219775 0.253,0.546 0.62176,1.030095 0.93276,1.544092 2.489994,2.573994 5.912288,4.228095 9.487276,4.380095 0.905997,0.039 1.834181,0.095 2.718181,-0.108004 2.783991,-0.64 3.88061,-1.824847 6.183601,-3.493844 0.296181,-0.353895 0.600459,-0.701761 0.905888,-1.048515 0.203256,0.521195 0.395895,1.046785 0.584461,1.574065 -0.191157,1.591273 -0.362803,3.177137 -0.510047,4.751131 -0.623997,6.679979 -0.54736,8.756146 -0.658357,15.216125 0.09,4.713988 -0.03289,9.591388 1.714107,14.067358 0.363997,0.932 0.789984,1.86359 1.401981,2.65359 1.016164,1.31078 2.829972,2.11428 4.516004,2.73265 -0.436658,-0.29741 -0.821641,-0.83515 -1.157035,-1.2237 -0.658,-0.765 -1.115673,-1.69458 -1.51567,-2.62258 -1.925994,-4.459 -1.91605,-9.39 -2.11305,-14.147975 -0.01681,-6.478565 -0.142584,-8.499573 0.38654,-15.105538 1.687911,5.893686 3.302681,11.81363 4.291211,17.876428 0.451,2.765995 1.296241,8.762915 0.747241,11.895915 -0.13,0.745 -0.764183,1.30289 -1.146183,1.95389 0.44,0.524 1.984813,1.41999 1.319816,1.57199 -0.07005,0.0162 -0.138278,0.0204 -0.206189,0.0191 0.715179,0.25174 1.388562,0.47807 1.934249,0.6997 0.447,-0.788 1.19897,-1.46868 1.33997,-2.36368 0.459997,-2.92 -0.684697,-9.89529 -1.115694,-12.354283 -1.147997,-6.546979 -2.849988,-12.974884 -4.576982,-19.384863 -0.723092,-2.327177 -1.240731,-4.105235 -1.968872,-6.143294 0.103216,-0.886595 0.212019,-1.774137 0.327629,-2.663404 0.115098,0.057 0.250032,0.118221 0.360184,0.174667 1.342997,0.208997 2.935178,0.104081 3.997172,-0.875916 0.174,-0.161 0.306954,-0.363153 0.460954,-0.544153 0.191713,-0.252152 0.38833,-0.504819 0.591179,-0.752409 0.948557,0.935222 2.135748,1.602768 4.151684,2.269629 0.45,0.15 0.879819,-0.347965 1.319816,-0.522965 0.511565,-0.34958 0.937557,-0.759452 1.317749,-1.203027 0.198669,7.920666 0.0043,15.85317 -0.429948,23.761857 -0.101949,0.237903 -0.207833,0.474121 -0.304891,0.714168 -0.470997,1.166997 -0.940737,2.341995 -1.255737,3.559989 -0.306,1.189997 -0.567151,4.246884 -0.698148,5.575884 0.24635,0.21546 0.484977,0.44164 0.72347,0.66766 -0.01712,0.0381 -0.03044,0.0778 -0.04909,0.11524 -0.078,0.158 -0.590261,0.25713 -0.424264,0.31213 0.403228,0.13441 0.818534,0.22188 1.237134,0.29714 0.677963,0.64755 1.367225,1.28023 2.14974,1.788 0.192,0.125 0.340297,-0.32912 0.425297,-0.54312 0.337,-0.858 0.664646,-3.11381 0.759643,-3.83181 0.362,-2.739979 0.372274,-3.670241 0.563274,-6.542232 0.0051,-0.118494 0.0084,-0.237036 0.01344,-0.355534 0.868175,-1.977374 1.923863,-3.873464 2.948658,-5.781559 0.685997,-1.278997 1.358085,-2.565833 2.037085,-3.847827 1.707358,-3.42414 3.1145,-6.969829 4.271057,-10.59677 0.03731,0.389242 0.181928,1.873147 0.620634,2.163693 1.332994,0.882997 2.840208,1.467969 4.260205,2.202966 0.456997,-0.29 0.964978,-0.510164 1.370975,-0.868164 3.040002,-2.679991 4.932692,-8.036696 6.463692,-11.734684 0.0425,-0.08714 0.3679,-0.821042 0.74259,-1.544092 0.013,0.02908 0.0324,0.05959 0.0418,0.08785 0.227,0.661997 0.38055,1.347032 0.57155,2.020032 0.01,0.046 0.78021,3.402149 0.88521,3.611149 0.15,0.301997 0.42901,0.55988 0.74001,0.68988 0.96127,0.398994 1.92669,0.850846 2.9223,1.157035 -0.085,-0.06426 -0.15925,-0.129363 -0.1974,-0.188102 -0.0289,-0.04421 -0.0777,-0.195215 -0.13281,-0.382405 0.33234,0.226304 0.66225,0.456427 0.93483,0.734322 0.32061,0.07565 0.64423,0.136681 0.97306,0.167431 0.347,0.032 2.03423,-2.017189 2.14923,-2.148189 l 0.95963,-1.296045 c 0.28537,-0.412095 0.55907,-0.832397 0.85731,-1.235583 0.36076,0.584188 0.66477,1.203648 1.00201,1.80144 0.785,1.140997 1.05302,2.575176 1.80402,3.735173 0.59178,0.914033 2.32786,1.444365 3.59616,1.703771 -0.0496,-0.04319 -0.092,-0.08502 -0.1204,-0.121956 -0.014,-0.01801 -0.0935,-0.179876 -0.13229,-0.252181 0.20677,0.143153 0.41136,0.288131 0.60668,0.44235 0.48804,0.08698 0.87358,0.132292 1.01441,0.132292 0.47697,0 0.51018,-0.810103 0.73018,-1.2361 0.264,-0.513 0.47989,-1.049031 0.72089,-1.573031 1.30718,-2.727213 2.67717,-5.58658 5.11287,-7.468795 0.85809,2.298809 1.23914,3.898765 2.24534,7.360791 0.387,1.854997 0.8641,3.693041 1.1591,5.565035 0.43449,2.759451 0.69269,5.607284 0.69401,8.448064 -2.5688,3.060744 -4.57736,6.591243 -6.31641,10.193693 -0.285,0.649997 -3.74997,7.970932 -3.38997,9.229932 0.16529,0.57863 0.44529,1.10702 0.79582,1.59783 0.0229,0.0173 0.0458,0.0397 0.0682,0.0672 0.055,0.0675 0.10611,0.13799 0.15141,0.21239 0.0146,0.0222 0.0291,0.0444 0.0434,0.0667 0.0114,0.0142 0.0246,0.0273 0.0362,0.0413 -0.003,8.4e-4 -0.006,0.002 -0.008,0.003 0.0129,0.02 0.0258,0.04 0.0388,0.06 0.0324,0.0353 0.0716,0.0631 0.10646,0.0961 0.003,0.003 0.007,0.005 0.0103,0.008 -0.0484,-0.056 -0.10007,-0.10992 -0.14676,-0.16692 0.7161,-0.21517 1.81834,0.24647 2.26549,-0.36121 0.878,-1.192 0.52237,-2.92714 0.98237,-4.33514 0.544,-1.663 1.34497,-3.22808 2.01797,-4.842082 0.8521,-1.774338 1.78304,-3.521552 2.81998,-5.197616 -0.0182,0.109481 -0.034,0.219448 -0.0532,0.328662 -0.708,4.018988 -1.42664,5.385155 -2.85564,9.144146 -0.68497,1.356 -2.13533,5.06225 -3.9243,5.92625 -0.13508,0.0651 -0.34259,0.0884 -0.56534,0.0837 0.64009,0.63572 1.3553,1.21667 2.02726,1.77405 0.432,0.36 1.20707,0.35219 1.68207,0.0501 1.75,-1.109 3.06427,-4.59113 3.81527,-6.13813 1.369,-3.638 2.20158,-5.351007 2.88458,-9.231995 0.39194,-2.227286 0.56278,-4.520079 0.56379,-6.820256 1.12085,-1.278732 2.34564,-2.467944 3.69952,-3.5326 1.86997,-1.469997 2.48303,-1.650072 4.51703,-2.653069 l -3.13521,-2.070157 c -2.02697,1.072997 -2.62008,1.263832 -4.47208,2.799829 -0.28348,0.235208 -0.56077,0.4763 -0.83302,0.721919 -0.12359,-1.360825 -0.29216,-2.710735 -0.49971,-4.035929 -0.294,-1.879994 -0.76997,-3.725843 -1.15497,-5.58984 -0.98968,-3.541597 -1.31763,-4.976337 -2.08618,-7.155118 0.164,0.08517 0.31702,0.166934 0.4868,0.254248 0.409,-0.022 0.88231,0.15582 1.22731,-0.06718 0.474,-0.305997 0.24567,-1.675665 -0.0403,-1.931665 -0.99098,-0.891397 -2.10913,-1.62968 -3.23391,-2.350244 -0.4199,-1.162713 -0.79708,-2.360874 -1.55391,-3.320727 -0.56591,-0.717732 -1.19786,-1.381254 -1.86758,-2.007113 -0.32483,0.211373 -0.97348,0.119363 -1.30173,0.241329 -0.31323,-0.565817 0.31324,-0.714217 0.83922,-0.665593 -0.81685,-0.723335 -1.68298,-1.395002 -2.56005,-2.033984 -0.318,-0.23 -0.8356,-0.148982 -1.1746,0.04703 -0.311,0.179997 -0.35527,0.626994 -0.53227,0.939994 -0.006,0.469997 -0.10707,0.950286 -0.0181,1.411283 0.27,1.397997 1.02017,2.462074 1.90014,3.547071 0.60354,0.744857 1.19612,1.385213 1.80041,1.956469 -2.68235,1.969668 -4.14491,4.998015 -5.60741,7.898226 -0.245,0.505 -0.46487,1.023156 -0.73587,1.515153 -0.0416,0.07533 -0.10581,0.148819 -0.17622,0.221692 -0.22857,-0.477621 -0.53641,-1.119843 -0.53795,-1.122929 -1.835,-3.443988 -2.43096,-5.140036 -6.97993,-6.351033 -0.416,-0.111 -0.5288,0.684115 -0.7798,1.036112 -2.303,3.217991 0.6899,-0.810019 -1.79007,2.495972 -0.338,0.374 -0.64538,0.777898 -1.01338,1.121895 -0.0621,0.05808 -0.14836,0.107561 -0.24133,0.154513 -0.13379,-0.57205 -0.28651,-1.231003 -0.29662,-1.274341 -0.094,-0.355 -0.89081,-3.586993 -1.21181,-3.929993 -0.31307,-0.335026 -0.64326,-0.653999 -0.98599,-0.959631 0.0179,0.02573 0.014,0.04228 -0.0429,0.03256 -0.27285,-0.04671 -0.555,-0.179556 -0.83664,-0.321944 0.01,-0.0062 0.021,-0.01702 0.0305,-0.0217 0.18351,-0.09105 0.6306,0.133794 0.79271,0.262516 -0.96953,-0.856915 -2.03985,-1.607039 -3.13366,-2.29185 -0.28197,-0.177 -0.7268,-0.137084 -0.9958,0.05891 -0.512,0.372 -1.51644,2.851928 -1.64744,3.141928 -1.047012,2.634991 -2.026033,5.320423 -3.48403,7.765417 -0.629537,1.057014 -1.59555,2.473655 -2.613794,3.384806 -0.191979,-1.856695 -0.140867,-3.736634 -0.179834,-5.597074 0.092,-2.749991 0.167629,-5.503702 0.327629,-8.251693 0.038,-0.644997 0.56211,-1.444249 0.14211,-1.934249 -0.02296,-0.02678 -0.04937,-0.05109 -0.07286,-0.07751 -0.0095,-0.07627 -0.03495,-0.147266 -0.100769,-0.204639 -0.245131,-0.214294 -0.514109,-0.426309 -0.797884,-0.621667 -0.77906,-0.591299 -1.696596,-1.020862 -2.632397,-1.199927 -0.228728,-0.04374 -0.248653,0.190648 -0.217558,0.49351 -0.113719,0.183343 -0.02075,0.53875 0.08888,0.910538 -0.115108,0.920205 -0.20302,1.842764 -0.347265,2.757972 -1.176997,7.471976 -3.437232,14.745712 -6.89622,21.475691 -0.551974,0.989633 -1.11336,1.978835 -1.67225,2.970362 0.146801,-6.309116 0.201563,-12.620856 0.305408,-18.930111 -0.06482,-2.490359 0.348046,-3.189928 -2.303735,-4.008541 -0.685331,-0.486422 -1.061372,-0.539652 -1.242302,-0.335897 -0.146196,-0.03668 -0.253175,-0.06939 -0.411861,-0.107487 -0.437997,-0.105 -0.408117,0.808679 -0.620117,1.207679 -0.839997,1.580994 -1.659783,3.10689 -3.229777,4.080887 -0.09677,0.02284 -0.133786,0.0311 -0.221692,0.05064 -0.05184,-0.08517 -0.104329,-0.170933 -0.147278,-0.252697 -0.083,-0.158 -0.132988,-0.331647 -0.199988,-0.497644 -1.226994,-0.728 -2.410398,-1.53533 -3.680395,-2.18333 -0.108,-0.055 -0.239031,0.06536 -0.340031,0.134359 -0.679997,0.465 -1.092713,1.309877 -1.655713,1.891874 -0.137,0.152 -0.255311,0.322786 -0.410311,0.455786 -0.211297,0.180729 -0.442192,0.32302 -0.685746,0.435116 0.117139,-0.826529 0.238491,-1.649734 0.364319,-2.470134 3.145248,-5.351975 5.188659,-11.316066 6.760828,-17.301786 0.426997,-1.624994 0.772071,-3.272233 1.158068,-4.908227 0.275,-1.419997 0.575756,-2.836759 0.824756,-4.261756 0.135,-0.774997 0.793884,-4.98007 0.797884,-6.090067 0.0071,-1.882636 -1.581621,-1.970865 -3.239595,-1.012858 -0.0154,-0.04419 -0.03032,-0.08529 -0.04599,-0.130742 z m 53.453583,24.829492 c 0.15679,0.138838 0.30965,0.28142 0.46251,0.424264 7.3e-4,-4.8e-4 0.001,-0.0011 0.002,-0.0016 -0.003,-0.0025 -0.006,-0.0052 -0.009,-0.0078 -0.0492,-0.04776 -0.1045,-0.08929 -0.1509,-0.140043 -0.0464,-0.05524 -0.0869,-0.114599 -0.12971,-0.172599 -0.0253,-0.02827 -0.0503,-0.05689 -0.0749,-0.08578 -0.0342,-0.0049 -0.0648,-0.01326 -0.10025,-0.01654 z m -1.56424,51.728111 c -0.16895,-0.16779 -0.33028,-0.34016 -0.48576,-0.51677 0.0276,0.0398 0.0476,0.0844 0.0636,0.13126 0.0177,0.029 0.0438,0.0522 0.0661,0.0796 0.0272,0.0427 0.0592,0.0814 0.0915,0.12041 0.036,0.0283 0.0657,0.0649 0.0961,0.0992 0.027,0.0343 0.0145,0.018 0.0382,0.0491 0.008,0.0103 0.0148,0.0204 0.0212,0.0305 0.0365,0.002 0.0732,0.006 0.10904,0.007 z m -3.75326,-33.384011 c -0.11231,-0.02002 -0.23121,-0.0431 -0.35399,-0.06821 0.31807,0.277168 0.97558,0.632436 0.76275,0.422197 -0.12785,-0.125598 -0.26647,-0.241628 -0.40876,-0.353984 z m -11.69541,-2.796211 c -0.20294,-0.04788 -0.4044,-0.102238 -0.60462,-0.163815 0.33612,0.254108 0.90775,0.496201 0.72657,0.286288 -0.0374,-0.04348 -0.0816,-0.08138 -0.12195,-0.122473 z M 70.930554,113.46904 c -0.199942,-0.0704 -0.401195,-0.14219 -0.606681,-0.21755 0.192017,0.13078 0.394095,0.21362 0.606681,0.21755 z M 30.268953,55.077775 c -1.991994,-0.015 -3.909724,0.792055 -5.755721,1.435055 l 3.323829,2.220019 c 1.763994,-0.684997 3.653194,-1.476613 5.585188,-1.390613 0.478,0.021 0.945521,0.139807 1.418518,0.209807 -0.297856,-0.231365 0.154283,-0.0786 0.762228,0.176733 -0.170716,-0.05397 -0.345399,-0.08399 -0.528133,-0.06201 -0.462,0.056 0.588121,0.734287 0.805118,1.149284 0.729,1.387997 0.514994,1.506059 0.492994,3.115056 -0.15,0.644997 -0.243102,1.306799 -0.450102,1.935799 -1.117997,3.392988 -3.415785,6.257112 -5.695776,8.927103 -0.999997,1.153997 -2.142013,2.154877 -3.31401,3.124874 l 3.293856,2.066024 c 1.158997,-1.005997 2.300241,-2.033794 3.290238,-3.214791 2.283994,-2.727991 4.577677,-5.681343 5.769674,-9.088334 0.226,-0.646997 0.340013,-1.32761 0.509013,-1.99161 0.04,-0.619997 0.185889,-1.243354 0.119889,-1.860351 -0.052,-0.508 -0.253672,-0.992692 -0.467672,-1.454692 -1.021997,-2.206996 -2.843067,-2.739978 -5.088061,-4.175972 A 6.54,6.54 0 0 0 33.098238,55.59609 c -0.439997,-0.163 -0.906093,-0.243903 -1.35909,-0.366903 -0.49,-0.05 -0.977195,-0.148412 -1.470195,-0.151412 z m 26.107968,1.221114 c 0.139997,0.077 0.308129,0.119061 0.420129,0.233061 0.01426,0.01444 0.02314,0.03012 0.03566,0.04496 -0.152998,-0.09134 -0.307168,-0.180994 -0.455786,-0.278019 z m -20.366199,1.60662 c 0.881143,0.390552 1.819947,0.86263 1.354439,0.731739 -0.476861,-0.134024 -0.908533,-0.488304 -1.354439,-0.731739 z m 20.374984,0.244947 c -0.154156,0.180097 -0.301725,0.335049 -0.390674,0.438733 -1.012997,1.176994 -1.531829,1.627007 -2.691826,2.759004 -2.250086,2.000239 -4.565774,4.082882 -7.223848,5.513359 0.01835,-0.05474 0.03499,-0.110171 0.05478,-0.164331 0.15,-0.411 0.394695,-0.781022 0.591695,-1.172022 1.714994,-2.593991 3.890249,-4.964121 6.65024,-6.446118 0.989873,-0.390505 1.982504,-0.736491 3.009636,-0.928625 z m 70.058774,1.186491 c 0.41079,1.101159 1.29842,2.065602 1.78232,3.157946 -0.0319,0.0043 -0.0637,0.01166 -0.0956,0.01499 -0.0235,0.01371 -0.0477,0.02628 -0.0713,0.03979 -0.74318,-0.919853 -1.35808,-1.938704 -1.59783,-3.062862 -0.0106,-0.04945 -0.0117,-0.09988 -0.0176,-0.149861 z m 5.44049,5.079793 c 0.78368,0.257369 2.01475,0.953833 1.57613,0.797367 -0.54843,-0.1948 -1.05283,-0.533361 -1.57613,-0.797367 z m -58.529241,3.761527 c 0.08202,-0.0056 0.258718,0.136937 0.194304,0.102837 -0.06477,-0.03431 -0.129531,-0.06854 -0.194304,-0.102837 z m 51.356551,40.466263 c -0.01,0.008 -0.0203,0.0164 -0.0305,0.0243 0.0254,0.013 0.0499,0.0274 0.0739,0.0429 -0.0144,-0.0224 -0.0291,-0.0447 -0.0434,-0.0672 z" />
          <path
             d="m 95.518,49.297 c -0.186,-0.262 2.042,1.02 1.53,0.77 -0.816,-0.396 -1.54,-1.008 -2.41,-1.259 -0.353,-0.101 0.61,0.457 0.768,0.787 0.44,0.92 -0.054,1.468 -0.419,2.278 -0.827,1.208 -1.911,2.119 -3.218,2.77 -0.343,0.17 -0.69,0.365 -1.067,0.43 -0.254,0.042 -0.986,-0.25 -0.764,-0.12 0.924,0.542 1.936,0.916 2.904,1.373 -0.085,-0.232 -0.21,-0.454 -0.254,-0.697 -0.315,-1.737 0.498,-3.529 1.211,-5.054 0.743,-1.487 1.915,-2.013 3.529,-1.989 l -3.176,-2.29 c -1.731,0.144 -2.963,0.74 -3.732,2.37 -0.869,1.917 -1.713,4.008 -1.184,6.138 1.284,0.82 2.497,1.761 3.851,2.458 0.48,0.248 1.63,-0.39 1.902,-0.538 1.34,-0.729 2.469,-1.7 3.333,-2.964 0.429,-0.89 1.017,-1.606 0.65,-2.67 -0.123,-0.357 -0.433,-0.637 -0.742,-0.853 -1.687,-1.18 -3.768,-2.638 -5.858,-3.313 z"
             id="path1113"
             style="fill:url(#linearGradient3478);fill-opacity:1;stroke:none;stroke-opacity:1" />
        </g>
      </g>
    </g>
  </g>
  <path
     d="M209.043 144.328c-.186-.263 2.042 1.02 1.529.77-.815-.396-1.539-1.009-2.41-1.26-.352-.1.61.457.769.788.44.92-.054 1.467-.419 2.278-.827 1.208-1.911 2.118-3.218 2.77-.343.17-.69.364-1.067.429-.254.043-.986-.25-.764-.12.924.542 1.936.916 2.903 1.374-.084-.233-.209-.454-.253-.698-.315-1.736.498-3.528 1.211-5.053.743-1.487 1.915-2.014 3.529-1.99l-3.176-2.29c-1.731.144-2.963.74-3.732 2.37-.869 1.917-1.713 4.009-1.185 6.139 1.284.82 2.498 1.76 3.852 2.458.48.247 1.63-.39 1.902-.538 1.34-.73 2.469-1.7 3.333-2.965.429-.89 1.017-1.605.65-2.67-.123-.356-.433-.636-.742-.852-1.687-1.18-3.768-2.639-5.858-3.313l3.146 2.373zM115.94 194.723c10.079-.594 20.182-.689 30.275-.802 10.075-.21 20.157-.3 30.223-.818 7.382-.381 8.98-.557 16.29-1.136 10.51-.993 21.004-2.168 31.54-2.856 6.062-.395 9.216-.493 15.233-.745 8.79-.312 17.587-.435 26.383-.387 2.124.016 4.249.063 6.373.081.784.008 1.568.011 2.352.013l-3.181-2.312-2.34-.006c-2.072-.008-4.144.002-6.215.04-8.637.138-17.272.378-25.902.75-7.763.36-15.536.714-23.282 1.36-7.821.652-15.614 1.648-23.436 2.293-2.662.216-5.322.465-7.986.649-12.88.885-25.793 1.054-38.698 1.156-10.27.118-20.539.317-30.809.409l3.18 2.31zM281.957 186.587c-.5-1.037-1.582-2.659-1.362-3.832.048-.253.176-.484.265-.726.2-.199.37-.434.6-.596.822-.58 2.033-.931 3.04-.792.833.115 1.187.44 1.866.872-.89-.374-1.705-1.094-2.67-1.122-.361-.011.232.691.266 1.05.038.401.005.808-.052 1.206-.183 1.272-.756 2.3-1.412 3.375-.548.643-1.098 1.433-1.972 1.66-.195.051-.413.09-.604.027-.22-.072-.773-.497-.558-.411.93.372 1.813.852 2.72 1.277-.704-1.108-.39-.532-.942-1.728l-3.528-1.616c.526 1.253.23.644.888 1.827 1.306.895 2.579 1.843 3.918 2.687.21.132.46.213.707.227 1.141.068 2.098-1.261 2.709-2.015.885-1.489 1.66-3.041 1.603-4.83-.013-.403.096-.91-.19-1.194-1.145-1.134-2.6-1.905-3.899-2.858-.305-.154-.592-.352-.915-.463-1.416-.488-3.115-.11-4.294.793-.266.203-.46.486-.691.729-.242.625-.483 1.02-.4 1.72.034.284.18.543.28.811.293.792.646 1.557 1.025 2.311l3.602 1.61z"
     fill="#222b00"
     id="path1117" />
  <path
     d="M194.829 87.441c-.644-.938-1.204-1.94-1.931-2.816-1.254-1.51-2.57-2.975-3.998-4.321-1.8-1.7-3.745-3.24-5.667-4.8-3.817-3.18-7.915-6-11.772-9.127-1.175-.954-2.277-1.994-3.415-2.99.25-.155.48-.35.753-.464 2.262-.953 3.422-.855 5.59-2.602 2.223-1.791 4.384-4.581 5.43-7.284.444-1.152.522-2.414.784-3.62-.09-4.34.168-3.9-.588-7.405-.141-.653-.41-1.278-.512-1.939-.024-.155.134-.608.144-.45.058.897-.074 1.801 0 2.698.057.685.261 1.35.392 2.025-2.662 1.728-2.418.817.91 2.68.846.652 10.072-11.31 9.226-11.962-7.684-3.88-3.07-2.244-14.235-3.603-1.833.808-4.004 1.091-5.5 2.424-3.511 3.126-4.159 7.211-2.594 11.267.192.5.248 1.388.783 1.404.487.014.345-.91.518-1.365-.244-.079-.488-.317-.73-.236-1.45.488-5.77 3.455-6.365 3.964-4.522 3.863-8.114 7.333-9.28 13.615-.587 3.165.308 6.432.461 9.647 1.268 2.25 2.214 4.713 3.802 6.749 3.303 4.231 8.59 7.912 13.089 10.658 4.613 2.815 8.686 4.84 13.88 6.26 1.44.395 2.956.433 4.434.65.64.452 7.031-8.605 6.39-9.057z"
     fill="none"
     id="path1119" />
  <path
     d="M31.219 100.423c5.3-1.643 4.409-1.413 10.941-3.159 9.047-2.418 12.539-3.365 22.55-5.038 13.09-2.188 22.56-3.077 35.782-4.572a576.394 576.394 0 0155.206-2.801c2.478-.006 7.415.172 9.753.245l3.644.232 3.513-.535-3.84-.213c-23.386-.569-46.791.49-70.067 2.81-12.513 1.408-23.86 2.543-36.299 4.513-11.282 1.787-13.374 2.425-23.342 4.95-6.457 1.637-6.219 1.59-11.655 3.059l3.814.509z"
     fill="#222b00"
     id="path1121" />
  <rect
     style="fill:#ffcd19;fill-opacity:1;stroke:none;stroke-width:0.264999;stroke-opacity:1"
     id="rect11827"
     width="1.5580645"
     height="1.4225806"
     x="125.6613"
     y="-109.33548"
     ry="0.7112903"
     transform="scale(1,-1)" />
  <path
     id="rect11827-1"
     style="fill:#ffcd19;fill-opacity:1;stroke:none;stroke-width:0.264999;stroke-opacity:1"
     d="m 126.20315,107.6079 c -0.39406,0 -0.71107,0.31753 -0.71107,0.71159 0,0.39405 0.31701,0.71106 0.71107,0.71106 h 0.13539 c 0.39406,0 0.71159,-0.31701 0.71159,-0.71106 0,-0.39406 -0.31753,-0.71159 -0.71159,-0.71159 z" />
  <use
     id="use11934"
     inkscape:spray-origin="#rect11827"
     xlink:href="#rect11827"
     transform="translate(0.25895145,0.12166355)" />
  <path
     id="path13662"
     style="fill:#ffb126;fill-opacity:1;stroke:none;stroke-width:0.264999;stroke-opacity:1"
     d="m 125.52567,107.91279 a 0.5419355,0.64354837 0 0 0 -0.53433,0.53795 c 0.0199,0.031 0.0399,0.0619 0.0599,0.093 0.0324,0.0353 0.0716,0.0631 0.10646,0.0961 0.0645,0.0532 0.10227,0.12487 0.12867,0.20257 0.0177,0.029 0.0438,0.0522 0.0661,0.0796 0.0272,0.0427 0.0592,0.0814 0.0915,0.12041 0.036,0.0283 0.0657,0.0649 0.0961,0.0992 0.027,0.0343 0.0145,0.018 0.0382,0.0491 0.001,0.002 0.003,0.003 0.004,0.005 a 0.5419355,0.64354837 0 0 0 0.48524,-0.63924 0.5419355,0.64354837 0 0 0 -0.54209,-0.64389 z" />
  <ellipse
     style="fill:#ffbf1f;fill-opacity:1;stroke:none;stroke-width:0.264999;stroke-opacity:1"
     id="path14386"
     cx="125.79677"
     cy="109.11532"
     rx="0.20322581"
     ry="0.11854839" />
  <path
     id="path17477"
     style="fill:#ffd216;fill-opacity:1;stroke:none;stroke-width:0.291289;stroke-opacity:1"
     d="m 126.91473,57.30968 a 0.77903217,0.7112903 0 0 0 -0.77928,0.711068 0.77903217,0.7112903 0 0 0 0.77928,0.711584 0.77903217,0.7112903 0 0 0 0.77877,-0.711584 0.77903217,0.7112903 0 0 0 -0.0191,-0.155029 c -0.0333,-0.02919 -0.0667,-0.05824 -0.0966,-0.09095 -0.0464,-0.05524 -0.0869,-0.114599 -0.12971,-0.172599 -0.0529,-0.05908 -0.10391,-0.119948 -0.15451,-0.180868 -0.01,-0.01153 -0.0181,-0.02294 -0.0258,-0.03411 a 0.77903217,0.7112903 0 0 0 -0.35295,-0.07751 z" />
</svg>
