<?xml version="1.0" encoding="UTF-8" standalone="no"?>
<!-- Created with Inkscape (http://www.inkscape.org/) -->

<svg
   width="297mm"
   height="210mm"
   viewBox="0 0 297 210"
   version="1.1"
   id="svg12"
   sodipodi:docname="header-c.svg"
   inkscape:version="1.2.1 (9c6d41e410, 2022-07-14)"
   xmlns:inkscape="http://www.inkscape.org/namespaces/inkscape"
   xmlns:sodipodi="http://sodipodi.sourceforge.net/DTD/sodipodi-0.dtd"
   xmlns="http://www.w3.org/2000/svg"
   xmlns:svg="http://www.w3.org/2000/svg">
  <sodipodi:namedview
     id="namedview14"
     pagecolor="#ffffff"
     bordercolor="#ffffff"
     borderopacity="1"
     inkscape:showpageshadow="0"
     inkscape:pageopacity="0"
     inkscape:pagecheckerboard="1"
     inkscape:deskcolor="#090909"
     inkscape:document-units="mm"
     showgrid="true"
     inkscape:zoom="0.71624579"
     inkscape:cx="310.64755"
     inkscape:cy="572.42919"
     inkscape:window-width="1920"
     inkscape:window-height="991"
     inkscape:window-x="-9"
     inkscape:window-y="-9"
     inkscape:window-maximized="1"
     inkscape:current-layer="layer1">
    <inkscape:grid
       type="axonomgrid"
       id="grid16"
       originx="0"
       originy="0" />
  </sodipodi:namedview>
  <defs
     id="defs9" />
  <g
     inkscape:label="Layer 1"
     inkscape:groupmode="layer"
     id="layer1">
    <g
       id="g5266">
      <g
         id="g5787"
         transform="matrix(1.0113394,0,0,1.0160746,224.89713,28.525915)"
         style="fill:#222b00;fill-opacity:1">
        <path
           style="fill:#222b00;fill-opacity:1;stroke-width:0.264583"
           id="path5746"
           d="m -124.49116,112.20389 c 1.73062,1.10942 2.54887,1.65979 5.0648,2.76816 0.49671,0.21882 1.06192,0.23061 1.59975,0.30368 2.44322,0.33197 4.82024,0.13185 7.26472,-0.0656 4.35558,-0.41864 8.64678,-1.28613 12.950191,-2.04844 0.350348,-0.0579 0.700699,-0.11571 1.051047,-0.17357 0,0 -3.172121,-2.22007 -3.172121,-2.22007 v 0 c -0.341337,0.0657 -0.682677,0.13145 -1.024017,0.19717 -4.23553,0.85215 -8.47419,1.74143 -12.78634,2.11215 -2.12203,0.14055 -3.16311,0.28143 -5.25999,0.15143 -0.68701,-0.0426 -1.37172,-0.13234 -2.04951,-0.25231 -0.54309,-0.0961 -1.90236,-0.86052 -1.60677,-0.39489 0.48541,0.76462 1.53159,0.96734 2.28718,1.46668 0.21071,0.13926 -0.43468,-0.25737 -0.65202,-0.38606 0,0 -3.66692,-1.45828 -3.66692,-1.45828 z" />
        <path
           style="fill:#222b00;fill-opacity:1;stroke-width:0.264583"
           id="path5756"
           d="m -83.369797,116.0381 c 0.08112,4.16774 0.06862,8.33704 0.08567,12.5055 0.03814,3.34795 -0.07731,6.69909 0.04794,10.04611 0.05524,1.47618 0.225285,3.76151 0.32802,5.24269 0.335923,4.22513 0.42535,8.46193 0.829652,12.68108 0.26743,2.49921 0.429805,5.00747 0.50883,7.51924 0.0199,0.92152 0.01238,0.47967 0.02349,1.32552 0,0 3.501721,1.77457 3.501721,1.77457 v 0 c -0.02622,-0.85915 -0.0105,-0.41038 -0.04827,-1.3463 -0.126463,-2.53274 -0.307779,-5.06356 -0.587703,-7.58429 -0.445278,-4.2304 -0.615273,-8.47858 -0.932209,-12.72012 -0.115502,-1.57597 -0.281856,-3.65 -0.338902,-5.22579 -0.121024,-3.34293 0.01304,-6.69148 -0.04044,-10.03528 0.01701,-4.13936 0.0041,-8.27958 0.08567,-12.4182 0,0 -3.463478,-1.76473 -3.463478,-1.76473 z" />
        <g
           id="g5774"
           style="fill:#222b00;fill-opacity:1">
          <circle
             id="path5742"
             style="fill:#222b00;fill-opacity:1;stroke:#000000;stroke-width:0.264583"
             cx="-117.83955"
             cy="78.313438"
             r="0.049204119" />
          <path
             style="fill:#222b00;fill-opacity:1;stroke-width:0.264583"
             id="path5748"
             d="m -112.61401,113.6742 c -0.13231,2.28604 -0.20602,4.57554 -0.24344,6.86502 -0.0395,2.08659 -0.0595,4.17349 -0.0721,6.2604 -0.005,1.42843 -0.011,2.85685 -0.005,4.28528 0.0314,1.75358 -0.0603,3.50858 -0.24399,5.25229 -0.16805,1.24457 -0.3681,2.5134 -0.84122,3.68351 -0.29454,0.64775 -0.72537,1.18957 -1.22371,1.68849 0,0 3.35681,2.05058 3.35681,2.05058 v 0 c 0.51727,-0.54542 0.98842,-1.1279 1.30662,-1.81617 0.4906,-1.20762 0.67991,-2.52031 0.84416,-3.80646 0.18503,-1.75149 0.31132,-3.51391 0.28783,-5.27599 0.005,-1.43042 -0.004,-2.8608 -0.008,-4.29121 -0.008,-2.09373 -0.0147,-4.18758 0.016,-6.28118 0.05,-2.26423 0.0823,-4.53446 0.32388,-6.78817 0,0 -3.49786,-1.82639 -3.49786,-1.82639 z" />
          <path
             style="fill:#222b00;fill-opacity:1;stroke-width:0.264583"
             id="path5750"
             d="m -115.87122,145.16582 c 1.54828,-0.15545 3.09951,-0.2262 4.64601,-0.40154 1.40768,-0.2015 2.83443,-0.16882 4.24514,-0.32186 1.4034,-0.19374 2.81876,-0.258 4.23331,-0.30181 0.91697,-0.0184 0.46866,-0.0113 1.34493,-0.0218 0,0 -3.17712,-2.2999 -3.17712,-2.2999 v 0 c -0.87099,0.0197 -0.42496,0.008 -1.33809,0.0347 -1.42212,0.052 -2.84383,0.13017 -4.25582,0.31523 -1.41202,0.11589 -2.83181,0.14498 -4.23755,0.33519 -1.56029,0.17289 -3.1265,0.24492 -4.69048,0.37615 0,0 3.22967,2.28568 3.22967,2.28568 z" />
          <path
             style="fill:#222b00;fill-opacity:1;stroke-width:0.264583"
             id="path5752"
             d="m -106.66851,129.57594 c 0.0434,2.27043 0.0485,4.54142 0.055,6.81221 8e-4,0.50029 0.003,1.00058 0.002,1.50087 -0.001,0.83095 -0.0375,1.66199 -0.0207,2.49276 0.004,0.21427 -0.12209,0.51328 0.05,0.64098 3.5636,2.64417 2.84325,3.12509 4.15064,1.45136 1.37747,-2.33693 3.036741,-4.48025 4.79857,-6.53655 0.581681,-0.50254 1.145646,-1.72846 2.08593,-1.68925 0.176765,0.007 0.641736,0.29807 0.483428,0.21909 -0.976577,-0.48725 -1.891154,-1.13715 -2.938507,-1.44401 -0.246656,-0.0723 0.234521,0.45743 0.351782,0.68615 0.549693,1.59366 0.595241,3.29089 0.626303,4.9593 -0.02675,2.09201 0.336828,1.81035 3.652901,3.04211 0.206391,0.0767 0.280717,-0.34019 0.403484,-0.52295 0.41625,-0.61969 0.772115,-1.27787 1.160627,-1.91532 1.4107,-2.13024 2.752592,-4.41447 4.662355,-6.15246 0.257833,-0.23464 0.546896,-0.43248 0.820343,-0.64873 0.578638,-0.30913 0.730425,-0.56076 1.39292,-0.31925 0.218887,0.0798 0.794266,0.48043 0.5788,0.3918 -0.923523,-0.37986 -1.722125,-1.1488 -2.713363,-1.26978 -0.378997,-0.0463 0.389385,0.65849 0.548481,1.00557 0.165061,0.3601 0.281152,0.74069 0.421728,1.11103 0.649893,1.99122 0.80433,4.08615 0.875151,6.16533 0,0 3.480348,1.75614 3.480348,1.75614 v 0 c -0.09413,-2.1176 -0.240784,-4.25321 -0.862775,-6.29265 -0.07436,-0.21356 -0.67783,-2.05268 -0.884237,-2.22933 -0.262035,-0.22426 -3.612269,-3.483 -5.387404,-2.82605 -0.268708,0.0994 -0.486981,0.30203 -0.730472,0.45305 -2.261171,1.93861 -3.881339,4.45518 -5.510315,6.92374 -0.409708,0.60304 -0.77623,1.23733 -1.224772,1.81207 -0.07129,0.0913 -0.347994,0.16402 -0.256276,0.23482 7.018049,5.41736 3.231258,2.89403 3.067315,1.6788 -0.02819,-0.209 -0.0086,-0.42168 -0.01294,-0.63253 -0.03612,-1.71166 -0.08003,-3.44121 -0.560809,-5.09814 -0.790167,-2.11739 -0.218747,-1.05987 -4.090627,-3.24899 -0.17553,-0.0992 -0.408202,-0.0686 -0.60451,-0.0225 -0.964591,0.22647 -1.482869,1.25739 -2.121719,1.89674 -1.73019,2.08039 -3.3809,4.22585 -4.87121,6.48576 -1.15661,1.08413 -0.85011,0.6031 2.72842,2.30763 0.19006,0.0905 -0.10974,-0.40887 -0.12673,-0.6187 -0.1077,-1.33048 0.0488,-2.68075 -0.0184,-4.01242 0.007,-2.25208 0.0114,-4.50437 0.0551,-6.7561 0,0 -3.51613,-1.79156 -3.51613,-1.79156 z" />
          <path
             style="fill:#222b00;fill-opacity:1;stroke-width:0.264583"
             id="path5758"
             d="m -79.741881,139.09713 c 0.602975,-1.76695 1.416164,-3.4448 2.475074,-4.98095 0.869958,-1.0886 2.152835,-1.37211 3.483433,-1.38771 0.268216,0.0338 1.066744,0.12367 1.332476,0.19951 0.191235,0.0546 0.721709,0.33125 0.55042,0.2302 -5.246967,-3.09545 -2.977189,-1.77755 -1.899001,-0.81611 0.910436,0.8446 1.246893,1.88316 1.412798,3.07532 0.13512,1.33893 0.136416,2.68283 0.0051,4.02082 -0.08666,0.97555 -0.368724,1.91674 -0.530866,2.88035 -0.08031,0.50639 -0.107881,1.01836 -0.13018,1.52984 0,0 3.517048,1.80898 3.517048,1.80898 v 0 c 0.01627,-0.49772 0.03589,-0.99604 0.104143,-1.48997 0.146941,-0.97719 0.429228,-1.92904 0.516115,-2.91476 0.134704,-1.36327 0.152561,-2.73116 0.03388,-4.09777 -0.133525,-1.25405 -0.388535,-2.38501 -1.302126,-3.32169 -1.798328,-1.81897 -4.181136,-3.36444 -6.789668,-3.39352 -1.435553,0.1084 -2.770627,0.49451 -3.669329,1.70142 -1.041699,1.5712 -1.83411,3.27628 -2.54821,5.01864 0,0 3.438861,1.9374 3.438861,1.9374 z" />
          <path
             style="fill:#222b00;fill-opacity:1;stroke-width:0.264583"
             id="path5760"
             d="m -63.082085,135.73435 c 0.216551,-0.3189 0.421617,-0.64591 0.64965,-0.9567 0.311108,-0.42401 0.645393,-0.83052 0.966992,-1.24663 1.040016,-1.34565 2.052857,-2.76909 3.459593,-3.76899 0.405734,-0.28839 0.870249,-0.48354 1.305373,-0.72531 1.303879,-0.20427 1.421185,-0.39067 2.697673,0.0705 0.423259,0.15291 1.618361,0.7818 1.196059,0.62626 -0.761463,-0.28045 -1.40762,-1.03891 -2.218285,-1.00277 -0.455136,0.0203 0.618604,0.67616 0.858636,1.06339 0.239472,0.38633 0.379162,0.82621 0.568743,1.23931 0.10309,0.45477 0.2701,0.89965 0.309269,1.3643 0.203719,2.41666 -0.98806,4.93546 -2.294993,6.88928 -0.393927,0.58891 -0.862089,1.12462 -1.293135,1.68693 -1.706877,1.89698 -3.767148,3.69644 -6.312151,4.33717 -0.513737,0.12934 -1.050206,0.23271 -1.578108,0.18831 -0.464603,-0.0391 -0.8867,-0.28861 -1.330049,-0.43292 0.78002,0.33678 1.494848,1.0967 2.340062,1.01032 0.423428,-0.0433 -0.347507,-0.78695 -0.417145,-1.20684 -0.07869,-0.4745 -0.06298,-0.96352 -0.02228,-1.44277 0.139213,-1.63928 0.776394,-2.80646 1.578002,-4.19473 0.288417,-0.36694 0.576831,-0.73389 0.865245,-1.10083 0,0 -3.287948,-1.9579 -3.287948,-1.9579 v 0 c -0.292827,0.38432 -0.585655,0.76864 -0.87848,1.15296 -0.262339,0.4552 -0.558408,0.89257 -0.787019,1.36561 -0.666919,1.38001 -1.082873,2.98668 -0.931995,4.53217 0.04645,0.47574 -0.02689,1.07444 0.326446,1.39637 1.251254,1.14002 2.83501,1.85037 4.252516,2.77556 0.467373,0.0982 0.92456,0.29118 1.402122,0.29454 2.320232,0.0163 4.949992,-1.77055 6.56491,-3.28062 0.508733,-0.4757 0.952469,-1.01647 1.4287,-1.52471 0.442248,-0.57442 0.920914,-1.12255 1.326743,-1.72325 1.323935,-1.95966 2.606524,-4.67205 2.49284,-7.09791 -0.02273,-0.48522 -0.182152,-0.95428 -0.273227,-1.43143 -0.176252,-0.44218 -0.298839,-0.90974 -0.528754,-1.32655 -1.116219,-2.02357 -3.120662,-2.73395 -5.160034,-3.96235 -1.359749,-0.81903 -2.613181,-0.85205 -4.094194,-0.3847 -0.442531,0.2667 -0.913167,0.49154 -1.3276,0.80011 -2.157256,1.60618 -3.531584,4.03015 -5.277982,6.02537 0,0 3.423809,1.94946 3.423809,1.94946 z" />
          <path
             style="fill:#222b00;fill-opacity:1;stroke-width:0.264583"
             id="path5762"
             d="m -49.629779,142.14534 c 2.449044,-5.98878 5.815004,-11.52746 8.991833,-17.14356 0.390244,-0.74172 0.929629,-1.69 1.23481,-2.50549 0.08154,-0.21788 0.3532,-0.52171 0.178041,-0.67481 -1.039797,-0.90882 -2.214862,-1.70674 -3.495141,-2.22445 -0.248039,-0.1003 -0.385016,0.37534 -0.542141,0.59189 -0.208685,0.28761 -0.366628,0.60882 -0.549945,0.91323 -0.17599,0.49115 -0.40264,0.96699 -0.527976,1.47343 -0.680633,2.75022 -0.433946,6.30803 0.07759,9.07466 0.143602,0.77667 0.352965,1.53974 0.529447,2.30961 0.228158,1.4854 0.884235,2.86705 1.170794,4.33669 0.397725,2.03977 0.560695,4.64645 -0.525295,6.53559 -0.298559,0.51936 -0.819986,0.87356 -1.22998,1.31034 -1.308467,0.59028 -1.478486,0.88218 -2.934776,0.72673 -0.451914,-0.0482 -1.657715,-0.66342 -1.313082,-0.36715 4.928999,4.23742 1.733801,0.67277 1.67092,0.27679 -0.06767,-0.42613 0.164359,-0.84714 0.246539,-1.27071 0.286417,-0.50542 0.523436,-1.04222 0.859255,-1.51625 1.339369,-1.89062 3.240799,-3.33915 4.993881,-4.81386 2.676168,-2.25123 1.203299,-0.94705 3.759877,-3.30357 2.326476,-2.16375 4.724906,-4.31309 6.359594,-7.06777 0.720532,-1.57109 1.817121,-2.61199 -2.639285,-2.33075 -0.480182,0.0303 0.366953,0.88965 0.560456,1.33016 0.23344,0.53143 0.480166,1.05692 0.720247,1.58538 1.370761,2.76479 2.993831,5.3914 4.662709,7.98316 0.980847,1.77253 1.720393,3.83073 1.09913,5.86553 -0.475266,1.55662 -0.98797,1.9028 -2.01875,3.11168 -0.507815,0.32218 -0.96801,0.73595 -1.523447,0.96653 -0.866804,0.35983 -2.16241,0.45731 -3.076993,0.1859 -0.406768,-0.12071 -1.521912,-0.73208 -1.11366,-0.61648 2.882505,0.8162 2.736588,2.09568 2.380847,-0.15731 0.167217,-0.49872 0.265679,-1.02606 0.50165,-1.49617 1.057823,-2.10743 2.876188,-3.76847 4.33854,-5.57255 1.555439,-1.91893 2.132128,-2.84573 3.520242,-4.87034 1.348769,-2.04574 2.510568,-4.21083 3.445679,-6.47601 0.490031,-1.18704 0.852406,-2.41735 1.34907,-3.60103 -1.112109,-0.44794 -2.137403,-1.33921 -3.336327,-1.34383 -0.447093,-0.002 0.128172,0.8857 0.160947,1.3316 0.09647,1.31242 0.06538,2.63168 0.145702,3.94519 0.08617,1.40917 0.271178,3.01634 0.420261,4.42467 0.200964,1.12319 0.398128,2.53593 0.797488,3.62579 0.986924,2.69335 3.21276,4.54875 6.663267,3.8212 1.137828,-0.23991 1.435307,-1.82995 2.152961,-2.74493 0.71743,-1.42323 1.5329168,-2.80112 2.15229,-4.26968 1.5300415,-3.62778 3.131857,-8.98144 4.1992693,-12.69389 1.1076498,-3.8524 2.4243135,-8.90956 3.3359973,-12.85425 0.4040836,-1.7484 0.7500749,-3.50972 1.12511236,-5.26458 0.26783699,-1.43039 0.55718991,-2.856921 0.80351095,-4.291177 0.26281252,-1.530281 0.65182791,-3.910552 0.68953419,-5.57553 0.007616,-0.336288 0.1903023,-0.850887 -0.1096364,-1.003152 -4.6375615,-2.354313 -3.8439327,-1.81365 -5.0117549,1.506133 -0.3342682,1.229444 -0.719016,2.446266 -1.0028044,3.688334 -2.2600938,9.891842 -2.5842481,20.111842 -2.7650818,30.212652 0.050981,4.24934 -0.048063,8.52909 0.4578927,12.7596 0.1560512,1.30481 0.4221202,3.22403 1.1484086,4.42573 0.261225,0.43221 0.7102454,0.71816 1.0653683,1.07723 1.6041164,0.51072 3.1293041,1.56932 4.81234905,1.53215 0.77052472,-0.017 1.13443233,-1.05588 1.59527495,-1.67364 0.5510751,-0.73871 0.988347,-1.55792 1.4220798,-2.37109 1.1947492,-2.23996 2.0269722,-4.62086 2.8335616,-7.0178 0.3371911,-0.97032 0.5016881,-1.98771 0.7900453,-2.97107 0.085913,-0.29298 0.1214083,-0.61868 0.3023201,-0.86463 0.1221959,-0.16612 0.3419911,-0.26468 0.5467046,-0.28961 0.2962214,-0.0361 2.436464,0.32698 2.46611,0.33163 0.8135544,-0.0836 1.7481434,0.18429 2.4406614,-0.25077 2.738149,-1.72018 6.998817,-7.35527 8.563806,-9.63533 2.923231,-4.25889 5.57405,-9.25868 7.822858,-13.90253 1.013569,-2.09304 1.910284,-4.24069 2.865425,-6.36103 1.799161,-4.431064 3.419832,-8.984966 4.036734,-13.752848 0.21195,-1.638104 0.273839,-3.574682 0.0254,-5.234392 -0.08757,-0.585031 -0.293634,-1.14608 -0.440451,-1.71912 -1.199907,-1.933691 -1.548781,-2.993749 -5.204804,-2.868819 -0.877496,0.02999 -1.227395,1.263214 -1.749372,1.969215 -2.776198,3.754945 -4.349967,8.141152 -6.048764,12.438081 -2.530509,6.777296 -4.570051,13.743113 -5.94199,20.849533 -0.707786,3.6662 -0.885299,5.4255 -1.363266,9.07031 -0.548086,4.44515 -0.612402,8.9939 0.310317,13.39747 0.444289,2.12033 0.72511,2.68149 1.447992,4.66677 0.30163,0.62737 0.5424,1.28783 0.90489,1.88211 1.594114,2.61347 4.846347,4.40072 7.469126,5.54356 1.276217,0.5561 2.932934,-0.0128 4.146212,-0.26413 0.755542,-0.32634 1.566408,-0.54655 2.266625,-0.97903 3.592951,-2.21911 5.948619,-6.45697 7.212523,-10.36157 0.339944,-1.0502 0.54261,-2.13999 0.813914,-3.20998 0.451516,-2.70863 1.381646,-7.72857 -0.701644,-10.07089 -0.245848,-0.27642 -0.590105,-0.44629 -0.885158,-0.66943 -1.435068,-0.70133 -2.799056,-1.5722 -4.305205,-2.10399 -0.323053,-0.11407 -0.695227,0.0771 -1.00168,0.23023 -1.656797,0.8281 -2.216264,2.89301 -2.715964,4.49473 -0.06184,0.51061 -0.186896,1.01749 -0.185521,1.53183 0.0037,1.38756 0.368422,2.68787 0.787117,3.99874 0.755193,2.36439 1.828983,4.5788 2.918161,6.80079 0.887339,1.55413 1.358025,2.54338 2.51205,3.91863 2.121551,2.52824 4.999643,4.31795 8.202377,5.21237 0.619691,0.17306 1.25816,-0.26999 1.887241,-0.40499 2.408454,-0.94818 4.181636,-2.75569 5.731637,-4.76036 0,0 -3.331089,-1.97803 -3.331089,-1.97803 v 0 c -1.449591,1.97262 -3.126483,3.73128 -5.492697,4.57649 -0.595254,0.0898 -1.190508,0.17959 -1.78576,0.26938 0.474533,0.44954 1.989924,1.0222 1.423601,1.34862 -0.588375,0.33913 -1.106564,-0.79096 -1.620064,-1.23538 -1.758506,-1.52196 -3.095617,-3.35452 -4.156152,-5.41948 -1.092036,-2.19582 -2.171518,-4.38018 -2.92195,-6.72328 -0.383625,-1.1978 -0.755647,-2.55253 -0.773872,-3.83212 -0.007,-0.49127 0.105336,-0.97697 0.158001,-1.46545 0.386152,-1.24766 0.732613,-2.58257 1.705248,-3.5314 0.242292,-0.23636 0.522115,-0.45138 0.837546,-0.57416 0.283745,-0.11045 1.103001,0.12829 0.907381,-0.10503 -0.620953,-0.74065 -1.587865,-1.1024 -2.381798,-1.6536 0.320099,0.17917 0.687002,0.29282 0.960295,0.53752 0.700714,0.6274 1.065768,1.57581 1.268598,2.4601 0.56515,2.46393 0.195119,4.98225 -0.207317,7.43582 -0.260192,1.05813 -0.448347,2.13662 -0.780571,3.17438 -1.242354,3.88073 -3.521475,7.94579 -7.158371,10.05272 -0.697542,0.4041 -1.497198,0.5982 -2.245798,0.8973 -0.716281,0.1134 -1.423661,0.33487 -2.148842,0.34018 -0.636045,0.005 -1.679401,-0.91337 -1.882726,-0.31068 -0.206147,0.61105 1.170095,1.46047 1.642814,1.02182 0.46303,-0.42967 -1.054227,-0.70768 -1.509818,-1.14523 -1.277977,-1.22736 -1.392109,-1.78822 -2.19369,-3.36166 -0.761925,-1.97748 -1.044683,-2.51239 -1.532301,-4.63062 -1.010261,-4.3886 -0.998816,-8.93237 -0.527457,-13.38917 0.460533,-3.84138 0.564986,-5.20442 1.280982,-9.08123 1.311755,-7.10257 3.293983,-14.07796 5.855844,-20.829274 1.6488,-3.958381 2.188075,-5.686745 4.316642,-9.266981 0.594294,-0.999598 1.247,-1.970365 1.985733,-2.868509 0.509193,-0.619075 1.829017,-0.863933 1.739415,-1.660493 -0.109741,-0.975574 -1.358527,-1.432732 -2.152343,-2.010352 -0.349123,-0.254042 0.529982,0.681771 0.79497,1.022657 0.176644,0.561422 0.416269,1.106789 0.529929,1.684266 0.320574,1.628767 0.324175,3.613145 0.171754,5.23253 -0.451115,4.79276 -1.931371,9.397621 -3.651425,13.867006 -0.921318,2.13262 -1.77097,4.29764 -2.763952,6.39784 -2.215123,4.68509 -4.818668,9.59685 -7.845706,13.81724 -1.89648,2.64414 -5.698902,7.38402 -8.904868,9.07792 -0.7329431,0.38726 -1.6561419,0.0767 -2.4842128,0.1151 -0.6547813,-0.0937 -1.9794572,-0.38817 -2.7090314,-0.15057 -0.2663129,0.0867 -0.5042255,0.28935 -0.6564839,0.52443 -0.1733198,0.2676 -0.1988547,0.60642 -0.2762755,0.9157 -0.2485592,0.99294 -0.3738792,2.01464 -0.6814189,2.99417 -0.9513386,3.04128 -2.15179469,6.72895 -4.1654088,9.23603 -0.4406162,0.5486 -1.6047394,0.73843 -1.5440028,1.43944 0.080405,0.92802 1.2334471,1.39619 1.8501706,2.09428 -0.3958177,-0.31527 -0.8915669,-0.5353 -1.1874531,-0.94581 -0.8067611,-1.11929 -1.1557997,-3.15365 -1.3461396,-4.40008 -0.6498947,-4.25583 -0.6427658,-8.58484 -0.7703071,-12.87493 0.018693,-2.03623 -0.00198,-4.0732 0.056082,-6.10869 0.2642404,-9.26179 1.1046338,-18.64479 4.0181047,-27.48841 1.29464791,-3.015181 1.99312367,-2.569768 -1.6836209,-4.984712 -0.2863086,-0.188053 0.2621476,0.645043 0.2872499,0.986665 0.055605,0.756732 0.011475,1.519344 -0.047523,2.275816 -0.1981702,2.540953 -0.6866688,5.223912 -1.0837457,7.721381 -0.3404671,1.76912 -0.6442863,3.54569 -1.0214012,5.30736 -0.8708168,4.06798 -2.0824928,8.91329 -3.2463795,12.87911 -1.1639727,3.96611 -2.676544,8.70656 -4.415763,12.50388 -0.652285,1.42417 -1.503441,2.74856 -2.255162,4.12284 -3.359431,3.75667 -2.387725,1.06129 -0.581392,4.8455 0.204512,0.42845 -0.709127,-0.64257 -0.984157,-1.02955 -1.044892,-1.4702 -1.28734,-3.29197 -1.622663,-5.01022 -0.175369,-1.5143 -0.355699,-2.8698 -0.434623,-4.39703 -0.03323,-0.64305 -0.04714,-3.16327 -0.0543,-3.91509 -0.0044,-0.46119 0.314126,-1.06043 -0.01497,-1.38356 -1.016892,-0.99844 -2.436205,-1.47942 -3.654307,-2.21914 -0.394605,1.22244 -0.731224,2.46302 -1.194748,3.6629 -0.875724,2.2669 -1.998764,4.42825 -3.322254,6.46607 -1.52411,2.23687 -1.773795,2.7187 -3.523685,4.81562 -1.525048,1.8275 -3.377682,3.50543 -4.518613,5.63142 -0.274717,0.51191 -0.41489,1.08533 -0.622334,1.62799 0.185155,2.91474 -0.262035,1.4299 4.069204,4.26254 1.260462,0.82435 3.051175,0.68625 4.361577,0.0715 0.572594,-0.26862 1.047143,-0.70963 1.570714,-1.06444 1.083121,-1.28517 1.602908,-1.64839 2.137356,-3.2812 0.682153,-2.08406 0.05386,-4.22494 -0.921469,-6.09022 -1.690481,-2.58171 -3.34774,-5.1923 -4.736919,-7.95201 -0.230206,-0.51908 -0.470191,-1.03393 -0.690615,-1.55723 -0.176662,-0.41942 -0.165288,-0.96237 -0.500388,-1.27031 -3.907658,-3.59093 -3.257944,-3.61184 -4.267012,-1.27793 -1.524384,2.76516 -3.864036,4.91551 -6.135521,7.06633 -2.408698,2.21967 -1.212546,1.16915 -3.745111,3.29305 -1.798108,1.50796 -3.736321,2.96423 -5.136888,4.87765 -0.36563,0.49951 -0.635973,1.06223 -0.95396,1.59335 -0.134538,0.50392 -0.429387,0.99083 -0.403612,1.51176 0.01992,0.40248 0.207955,0.84613 0.532125,1.08551 1.89139,1.39665 4.650909,3.45174 7.284789,2.60051 0.54156,-0.17503 1.007978,-0.52884 1.511967,-0.79326 0.426833,-0.48702 0.965133,-0.89546 1.280501,-1.46108 1.085472,-1.94684 1.004813,-4.63015 0.6145,-6.73995 -0.272164,-1.47114 -0.960903,-2.84472 -1.190448,-4.32757 -0.181639,-0.76052 -0.396803,-1.51381 -0.544914,-2.28157 -0.527082,-2.73222 -0.807001,-6.14333 -0.07377,-8.85897 0.128294,-0.47516 0.361185,-0.9157 0.541779,-1.37355 0.180518,-0.26652 0.330992,-0.55607 0.541552,-0.79955 0.884521,-1.02281 5.126932,1.27134 -2.757178,-2.28408 -0.196053,-0.0884 -0.03463,0.43169 -0.09459,0.63822 -0.23314,0.80304 -0.75938,1.82507 -1.093888,2.5387 -2.984098,5.73719 -6.197317,11.35412 -9.139901,17.11399 0,0 3.377911,1.88298 3.377911,1.88298 z" />
        </g>
      </g>
      <circle
         id="path6146"
         style="fill:#00ff74;stroke:#000000;stroke-width:0.264583"
         cx="331.35449"
         cy="164.75374"
         r="0.049204119" />
      <g
         id="g2441">
        <g
           id="g926">
          <path
             style="fill:#222b00;fill-opacity:1;stroke-width:0.268209"
             id="path5671"
             d="m 21.034808,52.392019 c 0.519424,3.481011 0.870278,6.982517 1.22631,10.483067 0.32111,3.108487 0.978471,6.166912 1.436425,9.256135 0.07666,1.261111 0.497357,2.45002 0.783778,3.668669 0,0 3.590791,1.736197 3.590791,1.736197 v 0 C 27.795764,76.306861 27.329921,75.125085 27.213788,73.86187 26.696822,70.765302 26.010284,67.695181 25.662626,64.572672 25.309002,61.10674 24.918908,57.643543 24.622504,54.172494 c 0,0 -3.587696,-1.780475 -3.587696,-1.780475 z" />
          <path
             style="fill:#222b00;fill-opacity:1;stroke-width:0.268209"
             id="path5673"
             d="m 27.837259,58.732723 c 1.763948,-0.684658 3.65227,-1.476575 5.584788,-1.390795 0.477514,0.02118 0.945693,0.140435 1.418535,0.210652 -0.766049,-0.595825 3.406282,1.332117 2.524809,1.084459 -0.797765,-0.224146 -1.467363,-1.069046 -2.289875,-0.970117 -0.462738,0.05566 0.587295,0.73456 0.804642,1.148763 0.72864,1.388598 0.514398,1.506727 0.492977,3.115346 -0.150092,0.645431 -0.242883,1.307088 -0.450268,1.936303 -1.118117,3.39248 -3.415647,6.256479 -5.69555,8.926428 -0.999618,1.154464 -2.142391,2.155664 -3.314119,3.125182 0,0 3.293943,2.066543 3.293943,2.066543 v 0 c 1.15854,-1.00692 2.299654,-2.034496 3.290109,-3.215084 2.283787,-2.728648 4.577494,-5.681533 5.769479,-9.088198 0.226287,-0.646731 0.339436,-1.327979 0.509159,-1.991963 0.04025,-0.620364 0.185682,-1.242832 0.120845,-1.861093 -0.05309,-0.506655 -0.254493,-0.992238 -0.468483,-1.454104 -1.022413,-2.206691 -2.843107,-2.739943 -5.088331,-4.175932 -0.387849,-0.248055 -0.811014,-0.441884 -1.242047,-0.60263 -0.439578,-0.163938 -0.905583,-0.244777 -1.35838,-0.367165 -0.490126,-0.05052 -0.977692,-0.147957 -1.470376,-0.151562 -1.991641,-0.01457 -3.909495,0.792029 -5.756585,1.435366 0,0 3.324728,2.219601 3.324728,2.219601 z" />
          <path
             style="fill:#222b00;fill-opacity:1;stroke-width:0.268209"
             id="path5675"
             d="m 46.17248,70.43336 c 3.989516,-1.402792 7.169013,-4.362587 10.30849,-7.099841 1.141523,-1.078848 1.762616,-1.623037 2.790626,-2.739409 0.530576,-0.576185 1.45303,-1.415138 1.118285,-2.337693 -0.06258,-0.172489 -0.216111,-0.296116 -0.324166,-0.444173 -1.362811,-0.711863 -2.677022,-1.526784 -4.088436,-2.135593 -0.312455,-0.134774 -1.820976,0.05421 -2.048237,0.08659 -1.34947,0.192279 -2.520972,0.623953 -3.771429,1.151458 -0.42521,0.254285 -0.871801,0.475529 -1.275627,0.76285 -2.181748,1.552319 -4.005593,3.674583 -5.494326,5.880542 -0.208785,0.401543 -0.467415,0.780661 -0.626357,1.204608 -0.73784,1.968014 -0.591948,4.322005 0.286623,6.220551 0.252647,0.545957 0.622143,1.029222 0.933213,1.543833 2.489801,2.574012 5.91224,4.227958 9.486779,4.380298 0.905853,0.03861 1.834079,0.09511 2.71787,-0.108181 2.78417,-0.640534 3.881676,-1.825592 6.184185,-3.494383 1.052045,-1.257097 2.205004,-2.43551 3.156134,-3.771313 4.345972,-6.103631 6.908746,-13.267309 8.797814,-20.459058 0.427019,-1.625678 0.771728,-3.272064 1.157595,-4.908096 0.275242,-1.420894 0.576774,-2.836901 0.825723,-4.26268 0.135207,-0.774351 0.793848,-4.980122 0.797773,-6.090605 0.0093,-2.636588 -3.113034,-1.763281 -5.169754,0.595874 -1.417973,1.626485 -1.291971,4.124926 -1.937958,6.187391 -0.692771,2.925071 -1.457003,5.833986 -2.07831,8.775215 -0.706089,3.342591 -1.31786,6.705159 -1.902835,10.071272 -1.088278,6.262291 -2.072801,12.800599 -2.665679,19.13936 -0.624788,6.679949 -0.547486,8.756084 -0.657998,15.215453 0.09016,4.714454 -0.03366,9.59184 1.713457,14.06749 0.363894,0.9322 0.789359,1.8634 1.401745,2.65342 1.583579,2.04291 5.107215,2.85842 7.057706,3.65019 0.446562,-0.78798 1.198553,-1.46833 1.339687,-2.36393 0.46023,-2.92053 -0.684651,-9.89452 -1.116006,-12.354188 -1.14812,-6.546803 -2.850821,-12.974989 -4.57731,-19.384773 -0.892381,-2.873855 -1.45315,-4.884891 -2.512002,-7.619645 -0.748381,-1.932899 -1.649795,-3.965729 -3.074271,-5.503822 -1.217916,-0.485603 -2.359893,-1.248766 -3.653748,-1.456818 -0.3158,-0.0508 0.133647,0.640117 0.296094,0.916896 0.229009,0.390193 0.539968,0.729521 0.858419,1.050184 1.783508,1.795922 4.751901,2.9298 6.804738,3.9816 1.342739,0.208438 2.935067,0.104117 3.996758,-0.876293 0.174636,-0.161261 0.30751,-0.362921 0.461264,-0.544382 0.406408,-0.533429 0.828283,-1.074926 1.304352,-1.549301 0.106565,-0.10619 0.204254,-0.241399 0.346847,-0.288473 0.07398,-0.02439 0.277824,0.141508 0.208948,0.105001 -1.090384,-0.578004 -2.182344,-1.153001 -3.273516,-1.729501 1.626609,2.635148 2.610979,3.806754 6.15648,4.980391 0.449412,0.148763 0.880337,-0.34888 1.320506,-0.523319 1.597246,-1.092057 2.414554,-2.730955 3.325763,-4.368105 0.219901,-0.39509 0.998219,-0.857821 0.677083,-1.175324 -4.131372,-4.084579 -3.030174,-0.727205 -2.799745,0.810259 0.371285,9.253056 0.177889,18.528963 -0.340487,27.772743 -0.232174,2.907782 -0.428953,5.851685 -1.108196,8.69956 -0.11766,0.4933 -0.226443,0.99861 -0.451861,1.45252 -0.07831,0.15768 -0.591105,0.25693 -0.424583,0.31231 1.044598,0.34737 2.161285,0.41639 3.24193,0.62458 0.05669,-1.82406 0.04122,-3.78955 0.455255,-5.576258 0.836932,-3.611698 2.668885,-6.794724 4.39981,-10.017997 0.686638,-1.278639 1.358519,-2.565213 2.03778,-3.847824 3.80537,-7.632488 6.131139,-15.867275 7.47416,-24.268535 0.0926,-0.435917 0.61255,-1.015232 0.277786,-1.307719 -0.938531,-0.820033 -2.207323,-1.627609 -3.439117,-1.45444 -0.633686,0.08911 0.07261,1.284156 0.07762,1.926986 0.02151,2.761701 -0.133878,5.528787 -0.242306,8.287358 0.01857,2.047716 -0.08505,4.110266 0.115936,6.153389 0.03036,0.308673 0.171289,1.927818 0.627717,2.230192 1.333128,0.883182 2.839714,1.468329 4.259572,2.202494 0.457156,-0.289012 0.965556,-0.509033 1.371467,-0.867047 3.03912,-2.680516 4.93261,-8.037719 6.46403,-11.735336 0.082,-0.16813 1.21007,-2.744357 1.7309,-3.000977 0.26199,-0.129082 1.09303,0.393872 0.80536,0.344714 -0.84669,-0.144699 -1.78846,-1.120039 -2.49808,-0.63399 -0.54315,0.372015 0.53245,1.209454 0.74599,1.834065 0.22634,0.662075 0.38108,1.346706 0.57162,2.020048 0.0109,0.04633 0.78053,3.401727 0.88484,3.611211 0.15051,0.302261 0.42891,0.560507 0.73978,0.68967 1.45962,0.606475 2.9284,1.341331 4.50115,1.48793 0.34649,0.03231 2.03342,-2.016431 2.14807,-2.148022 0.31981,-0.431913 0.63962,-0.863826 0.95943,-1.29575 0.28643,-0.4128 0.56141,-0.833862 0.85928,-1.238412 0.25289,-0.343453 1.05235,-0.666595 0.79222,-1.004542 -0.50101,-0.650887 -1.63261,-1.432248 -2.27774,-0.92538 -0.55896,0.439168 0.92981,1.081906 1.32427,1.674512 0.43677,0.656171 0.77458,1.373641 1.16187,2.060457 0.7852,1.140615 1.05272,2.574448 1.80361,3.734236 0.8982,1.387308 4.45763,1.903799 4.96506,1.903779 0.47675,-1e-5 0.51021,-0.810645 0.72984,-1.23577 0.26475,-0.512448 0.48091,-1.048793 0.72137,-1.573189 1.38993,-2.899267 2.84935,-5.949381 5.58778,-7.814264 0.42338,-0.288331 0.90152,-0.485694 1.35229,-0.728546 -0.59811,-1.002865 2.7839,0.834045 2.09902,0.59034 -0.91373,-0.325134 -1.70541,-1.055021 -2.66913,-1.159687 -0.13144,-0.01423 0.85515,1.405668 0.17573,1.580474 -0.31557,0.08118 -0.5967,-0.262798 -0.89505,-0.394197 0.59067,0.29835 1.81907,1.557582 1.77201,0.895061 -0.0561,-0.789876 -1.23997,-0.980909 -1.81646,-1.520922 -1.46048,-1.368033 -3.12868,-3.078665 -3.56563,-5.127529 -0.0876,-0.41088 0.002,-0.840405 0.003,-1.260603 -0.67259,-1.043059 1.67133,-0.794021 1.38551,-0.405317 -0.34265,0.465987 -1.66334,0.04558 -1.61507,0.622909 0.12652,1.5132 1.40488,2.6921 2.00862,4.084224 1.96114,4.521979 2.13577,5.713154 3.53571,10.530861 0.38621,1.854895 0.86385,3.692934 1.15863,5.564706 0.79507,5.048285 1.00739,10.393528 0.11611,15.448977 -0.70861,4.019327 -1.4272,5.385947 -2.85597,9.14525 -0.68504,1.35572 -2.13502,5.06177 -3.92439,5.92569 -0.50345,0.24306 -2.00627,-0.0605 -1.61241,-0.4584 0.63125,-0.63776 2.0937,0.15747 2.62602,-0.56568 0.87718,-1.19164 0.5216,-2.92741 0.98186,-4.33554 0.54329,-1.66216 1.34509,-3.22747 2.01763,-4.841213 2.46571,-5.135211 5.5724,-10.058428 10.09435,-13.613967 1.86982,-1.47022 2.48288,-1.65104 4.51709,-2.653439 0,0 -3.13508,-2.069357 -3.13508,-2.069357 v 0 c -2.02741,1.072873 -2.62012,1.263559 -4.47213,2.799915 -4.4505,3.691988 -7.48581,8.703776 -9.97514,13.860101 -0.28462,0.648885 -3.75031,7.97057 -3.39025,9.22947 0.54174,1.89416 2.29712,3.2514 3.80964,4.50633 0.43261,0.35894 1.20793,0.35123 1.68245,0.0505 1.75051,-1.10955 3.06459,-4.59196 3.81502,-6.13875 1.3687,-3.63777 2.20245,-5.351496 2.88528,-9.232545 0.89474,-5.085565 0.63527,-10.513832 -0.15933,-15.588708 -0.29441,-1.880307 -0.7708,-3.727277 -1.15619,-5.59091 -1.4066,-5.034843 -1.45707,-5.780479 -3.37276,-10.516687 -0.5559,-1.374383 -0.90964,-2.891789 -1.82657,-4.054636 -1.36788,-1.734703 -3.10766,-3.16572 -4.89116,-4.464617 -0.31716,-0.230984 -0.83473,-0.149027 -1.17423,0.0473 -0.31085,0.179755 -0.35484,0.626338 -0.53225,0.939505 -0.006,0.470376 -0.10709,0.949348 -0.0178,1.411123 0.27047,1.39849 1.02091,2.46166 1.90058,3.547315 2.44631,3.019164 4.71267,4.336505 8.31526,6.189652 0.40919,-0.02225 0.88282,0.155694 1.22756,-0.06686 0.47372,-0.305839 0.24545,-1.676117 -0.0396,-1.932351 -1.21483,-1.092016 -2.6192,-1.955029 -3.99338,-2.835986 -0.30877,-0.197951 -0.66607,-0.343402 -1.03006,-0.384472 -0.41216,-0.04643 -0.82511,0.08576 -1.23766,0.128645 -0.45669,0.267512 -0.94055,0.492908 -1.37008,0.802526 -2.72922,1.967263 -4.20349,5.02644 -5.67875,7.953121 -0.24566,0.504979 -0.466,1.023217 -0.73697,1.514957 -0.20588,0.373621 -0.90803,0.709383 -0.69114,1.076663 0.60788,1.029334 1.85822,1.504166 2.70963,2.34131 0.2468,0.242659 -0.67088,-0.270865 -0.88263,-0.544921 -0.14737,-0.190737 -1.8445,-3.764058 -1.84882,-3.773081 -1.83622,-3.444787 -2.4321,-5.140931 -6.98021,-6.351675 -0.41669,-0.110925 -0.52919,0.684052 -0.78082,1.035695 -2.30292,3.218284 0.68951,-0.809324 -1.7902,2.496079 -0.33739,0.374169 -0.64434,0.778526 -1.0122,1.122508 -0.328,0.306722 -1.24804,0.409915 -1.06688,0.821669 0.4328,0.983702 1.68078,1.351725 2.38102,2.165225 0.22636,0.26297 -0.73517,-0.182874 -0.92491,-0.473613 -0.17002,-0.260501 -0.8992,-3.512997 -0.92732,-3.633331 -0.0941,-0.354803 -0.8913,-3.587038 -1.21209,-3.930217 -1.2124,-1.296948 -2.67321,-2.358492 -4.17591,-3.300027 -0.28231,-0.176889 -0.72681,-0.136632 -0.99638,0.05924 -0.51181,0.371944 -1.51613,2.852386 -1.6464,3.142221 -1.04769,2.634773 -2.026744,5.319516 -3.484076,7.764395 -0.701603,1.177041 -1.819383,2.806642 -2.9619,3.679135 -0.371096,0.283393 -0.844636,0.396421 -1.266953,0.594637 0.818852,0.599576 1.555459,1.333212 2.456559,1.798727 0.28268,0.14604 -0.413834,-0.500864 -0.524065,-0.800393 -0.153627,-0.417454 -0.194158,-0.869678 -0.252887,-1.310817 -0.272034,-2.043377 -0.20182,-4.119126 -0.245204,-6.173162 0.09175,-2.750595 0.167818,-5.50371 0.328417,-8.251409 0.03773,-0.645543 0.561746,-1.444777 0.14168,-1.934728 -0.906766,-1.057612 -2.239134,-1.842855 -3.604051,-2.10363 -0.455227,-0.08698 -0.08461,0.927219 -0.126914,1.390823 -0.11622,0.923703 -0.203752,1.851511 -0.348655,2.77111 -1.177404,7.472243 -3.437399,14.74628 -6.896708,21.475945 -1.887438,3.385571 -3.921694,6.740284 -5.37935,10.346424 -0.471562,1.166616 -0.941757,2.341513 -1.256077,3.560407 -0.306459,1.188421 -0.567275,4.246239 -0.698297,5.575269 1.212298,1.06007 2.287047,2.30385 3.636891,3.18023 0.192513,0.12499 0.341025,-0.32876 0.425159,-0.54297 0.337281,-0.85875 0.664754,-3.11382 0.75972,-3.83221 0.362102,-2.739206 0.372244,-3.669982 0.562838,-6.541601 0.398448,-9.229301 0.430932,-18.469808 0.582599,-27.705632 -0.07642,-2.919355 0.520329,-3.376812 -3.95796,-4.451636 -0.438727,-0.105296 -0.408185,0.808359 -0.620652,1.208123 -0.840305,1.581073 -1.659512,3.107065 -3.228979,4.081175 -1.864805,0.439351 -2.137079,0.198826 1.220189,1.873266 0.283267,0.141275 -0.431772,-0.464844 -0.6341,-0.709037 -0.318695,-0.384645 -0.716573,-0.911998 -0.955209,-1.366814 -0.08307,-0.158324 -0.133701,-0.331789 -0.200554,-0.497683 -1.226546,-0.727804 -2.409392,-1.535675 -3.67964,-2.183412 -0.10839,-0.05528 -0.238878,0.06533 -0.339393,0.133989 -0.681134,0.465342 -1.093726,1.31095 -1.657083,1.892175 -0.136487,0.151954 -0.25432,0.323203 -0.409459,0.455872 -1.02317,0.874942 -2.495141,0.885133 -3.729007,0.617357 0.732173,0.50063 1.513656,0.935266 2.196516,1.50189 0.359475,0.298289 -0.829737,-0.431415 -1.218337,-0.690219 -0.643903,-0.428824 -1.509186,-1.139254 -1.989567,-1.773924 -0.151843,-0.200614 -0.12483,-0.53726 -0.332853,-0.678108 -1.119864,-0.758225 -2.369404,-1.302415 -3.554106,-1.953627 0.182744,0.14541 0.392511,0.261934 0.548226,0.436221 0.509406,0.57015 1.491419,2.1175 1.783976,2.665103 1.702639,3.186948 2.73643,6.683444 3.899557,10.086288 1.844378,6.398781 3.652529,12.818858 4.726515,19.405897 0.451026,2.766257 1.295612,8.763377 0.747192,11.896377 -0.13035,0.74466 -0.763999,1.30289 -1.145999,1.95432 0.439815,0.52398 1.984459,1.41896 1.319439,1.57191 -0.788138,0.18127 -1.440301,-0.80827 -1.969533,-1.42238 -0.65879,-0.76446 -1.116071,-1.69541 -1.516714,-2.62302 -1.925689,-4.45852 -1.915654,-9.39071 -2.112607,-14.148083 -0.0172,-6.551334 -0.148361,-8.526665 0.402406,-15.311513 0.509072,-6.271202 1.442427,-12.995929 2.553027,-19.17284 0.601046,-3.342877 1.252586,-6.678769 2.028704,-9.985051 0.679311,-2.893903 1.556868,-5.737183 2.335304,-8.605775 2.998257,-8.150996 2.755069,-3.587711 0.442398,-11.099831 -0.110073,-0.357549 0.46655,0.631282 0.500277,1.004007 0.07976,0.881515 -0.08397,1.769016 -0.169643,2.649969 -0.322607,3.317288 -0.576148,4.353574 -1.173338,7.794839 -0.363443,1.641362 -0.677329,3.294598 -1.090328,4.924085 -1.784226,7.039646 -4.4347,14.409418 -8.797773,20.287551 -0.964167,1.298981 -2.144352,2.421012 -3.21653,3.631522 -2.395689,1.641164 -3.336034,2.679226 -6.1794,3.239429 -0.88042,0.173464 -1.796152,0.110396 -2.691152,0.04745 -0.858422,-0.06036 -1.755228,-0.751692 -2.548172,-0.415849 -0.454731,0.192607 1.509388,1.224613 1.046881,1.051718 -0.601153,-0.224725 -0.995815,-0.812504 -1.493724,-1.218751 -0.319995,-0.485612 -0.698839,-0.936902 -0.959988,-1.456837 -0.897212,-1.786351 -1.082356,-4.03845 -0.392912,-5.923675 0.150442,-0.411368 0.394553,-0.781757 0.591831,-1.172631 1.714622,-2.593906 3.891026,-4.964083 6.650859,-6.445866 1.563664,-0.616676 3.132857,-1.125072 4.837586,-1.085561 0.304917,0.0071 1.134057,0.30863 0.90941,0.101373 -0.804536,-0.742224 -1.830855,-1.197343 -2.746279,-1.79603 0.139852,0.07773 0.307108,0.119077 0.41956,0.233183 0.631545,0.640844 -0.475975,1.677613 -0.802269,2.056842 -1.013007,1.177377 -1.531686,1.627142 -2.692084,2.759019 -3.106205,2.761914 -6.335069,5.688595 -10.423797,6.825827 0,0 3.293799,2.259943 3.293799,2.259943 z" />
        </g>
        <path
           style="fill:#222b00;stroke-width:0.264583;fill-opacity:1"
           id="path862"
           d="m 95.518121,49.297495 c -0.1864,-0.262808 2.04222,1.019198 1.52893,0.769916 -0.81524,-0.395933 -1.5387,-1.00879 -2.4097,-1.259308 -0.35239,-0.101354 0.60979,0.456597 0.76835,0.78722 0.44115,0.919879 -0.0533,1.46748 -0.41845,2.27766 -0.82685,1.208215 -1.91129,2.118908 -3.21807,2.769598 -0.34332,0.170947 -0.68928,0.365342 -1.06739,0.429519 -0.25395,0.0431 -0.9858,-0.249007 -0.76357,-0.118753 0.92357,0.54133 1.93554,0.915278 2.90331,1.372918 -0.0845,-0.232537 -0.20914,-0.454197 -0.25335,-0.697614 -0.31535,-1.736191 0.49817,-3.528335 1.21091,-5.053277 0.7426,-1.487207 1.91471,-2.013633 3.52879,-1.989368 0,0 -3.17624,-2.290416 -3.17624,-2.290416 v 0 c -1.73068,0.144182 -2.96279,0.740569 -3.73191,2.37013 -0.86824,1.917031 -1.71306,4.008604 -1.18415,6.138447 1.28394,0.819425 2.49762,1.761072 3.85182,2.458275 0.47996,0.247105 1.6299,-0.39008 1.90172,-0.537979 1.3403,-0.729264 2.46863,-1.699731 3.33265,-2.964551 0.42908,-0.890262 1.01754,-1.605542 0.65051,-2.670101 -0.12285,-0.356311 -0.43355,-0.636804 -0.74241,-0.852802 -1.68718,-1.179917 -3.76806,-2.638475 -5.85797,-3.31298 0,0 3.14622,2.373466 3.14622,2.373466 z" />
      </g>
      <path
         style="fill:#222b00;stroke-width:0.264583;fill-opacity:1"
         id="path862-5"
         d="m 209.04301,144.32801 c -0.1864,-0.26281 2.04222,1.0192 1.52893,0.76992 -0.81524,-0.39594 -1.5387,-1.00879 -2.4097,-1.25931 -0.35239,-0.10136 0.60979,0.45659 0.76835,0.78722 0.44115,0.91988 -0.0533,1.46748 -0.41845,2.27766 -0.82685,1.20821 -1.91129,2.11891 -3.21807,2.7696 -0.34332,0.17094 -0.68928,0.36534 -1.06739,0.42951 -0.25395,0.0431 -0.9858,-0.249 -0.76357,-0.11875 0.92357,0.54133 1.93554,0.91528 2.90331,1.37292 -0.0845,-0.23254 -0.20914,-0.4542 -0.25335,-0.69761 -0.31535,-1.7362 0.49817,-3.52834 1.21091,-5.05328 0.7426,-1.48721 1.91471,-2.01363 3.52879,-1.98937 0,0 -3.17624,-2.29042 -3.17624,-2.29042 v 0 c -1.73068,0.14419 -2.96279,0.74057 -3.73191,2.37013 -0.86824,1.91704 -1.71306,4.00861 -1.18415,6.13845 1.28394,0.81943 2.49762,1.76107 3.85182,2.45828 0.47996,0.2471 1.6299,-0.39008 1.90172,-0.53798 1.3403,-0.72927 2.46863,-1.69973 3.33265,-2.96455 0.42908,-0.89027 1.01754,-1.60555 0.65051,-2.6701 -0.12285,-0.35632 -0.43355,-0.63681 -0.74241,-0.85281 -1.68718,-1.17991 -3.76806,-2.63847 -5.85797,-3.31298 0,0 3.14622,2.37347 3.14622,2.37347 z" />
      <path
         style="fill:#222b00;fill-opacity:1;stroke-width:0.264583"
         id="path4801"
         d="m 115.94086,194.72259 c 10.07795,-0.59377 20.18108,-0.68834 30.274,-0.80143 10.07533,-0.2106 20.15693,-0.29949 30.22296,-0.81863 7.38231,-0.38074 8.98067,-0.55696 16.29091,-1.13548 10.50969,-0.99299 21.00301,-2.16818 31.53933,-2.8557 6.06195,-0.39556 9.21559,-0.49363 15.23312,-0.74567 8.79042,-0.31145 17.58697,-0.43442 26.38255,-0.38629 2.12463,0.0159 4.24884,0.0625 6.37342,0.0811 0.78385,0.008 1.56773,0.0108 2.35159,0.0121 0,0 -3.18082,-2.31205 -3.18082,-2.31205 v 0 c -0.78005,-0.002 -1.56007,-0.003 -2.34011,-0.006 -2.07177,-0.008 -4.14346,0.002 -6.21493,0.0396 -8.63674,0.13837 -17.27143,0.37863 -25.90151,0.75043 -7.76324,0.36046 -15.53601,0.71434 -23.28222,1.36018 -7.82126,0.6521 -15.61402,1.64869 -23.43635,2.29342 -2.66208,0.21613 -5.3217,0.46514 -7.98624,0.6484 -12.87963,0.88579 -25.7927,1.05419 -38.69763,1.15668 -10.27001,0.11749 -20.53876,0.31725 -30.8087,0.40838 0,0 3.18063,2.31087 3.18063,2.31087 z" />
      <path
         style="fill:#222b00;fill-opacity:1;stroke-width:0.264583"
         id="path4803"
         d="m 281.9569,186.58683 c -0.50056,-1.0367 -1.58234,-2.65856 -1.3616,-3.8323 0.0476,-0.25299 0.17616,-0.48378 0.26422,-0.72567 0.20023,-0.19874 0.37026,-0.43346 0.60068,-0.59623 0.82172,-0.58043 2.03309,-0.9309 3.03972,-0.79151 0.8332,0.11537 1.18676,0.44061 1.86605,0.87237 -0.88992,-0.37431 -1.70476,-1.09418 -2.66975,-1.12293 -0.36134,-0.0108 0.23188,0.69146 0.26591,1.05133 0.0379,0.4003 0.005,0.80712 -0.0524,1.20512 -0.18257,1.27159 -0.75526,2.30016 -1.41158,3.37455 -0.54787,0.64297 -1.09863,1.43361 -1.97176,1.66068 -0.19523,0.0508 -0.41301,0.0904 -0.60452,0.0271 -0.21949,-0.0725 -0.7729,-0.49731 -0.55829,-0.41135 0.9299,0.37249 1.8135,0.85157 2.72026,1.27736 -0.70416,-1.108 -0.38979,-0.53215 -0.94234,-1.72798 0,0 -3.5273,-1.61667 -3.5273,-1.61667 v 0 c 0.52568,1.25283 0.22937,0.64395 0.88826,1.82696 1.30593,0.89578 2.57805,1.84293 3.91777,2.68736 0.20928,0.13192 0.45953,0.21272 0.70649,0.22738 1.14141,0.0678 2.09817,-1.26174 2.70931,-2.0155 0.88455,-1.48887 1.66086,-3.04092 1.60292,-4.8304 -0.013,-0.4026 0.0962,-0.90988 -0.18992,-1.19342 -1.14458,-1.13426 -2.5991,-1.90554 -3.89866,-2.85831 -0.30509,-0.15424 -0.59206,-0.35137 -0.91527,-0.4627 -1.41571,-0.48761 -3.11531,-0.10942 -4.2939,0.79247 -0.26604,0.20358 -0.46093,0.48626 -0.69138,0.72939 -0.24199,0.62529 -0.48271,1.0193 -0.39973,1.72063 0.0336,0.28382 0.18063,0.5424 0.27993,0.81039 0.29331,0.79185 0.64606,1.5569 1.02497,2.31103 0,0 3.60195,1.61082 3.60195,1.61082 z" />
    </g>
    <path
       style="fill:#000000;fill-opacity:0;stroke-width:0.264583"
       id="path6177"
       d="m 194.82879,87.44147 c -0.6437,-0.938922 -1.20379,-1.941026 -1.93113,-2.816759 -1.25367,-1.509448 -2.57024,-2.974486 -3.9973,-4.321199 -1.80053,-1.699149 -3.74519,-3.240016 -5.66777,-4.799711 -3.81619,-3.178913 -7.91504,-5.999612 -11.7712,-9.127217 -1.17518,-0.953149 -2.27714,-1.993181 -3.41571,-2.989771 0.25094,-0.154583 0.48122,-0.349321 0.75284,-0.463743 2.26212,-0.952939 3.42248,-0.85476 5.59117,-2.602296 2.22262,-1.790996 4.38348,-4.581033 5.42851,-7.28427 0.44518,-1.151605 0.52297,-2.413305 0.78445,-3.619958 -0.0889,-4.339812 0.16793,-3.900416 -0.58801,-7.404182 -0.14096,-0.653354 -0.40967,-1.278265 -0.51124,-1.93889 -0.024,-0.155845 0.13381,-0.607984 0.14386,-0.450625 0.0573,0.897427 -0.0747,1.801579 -2.6e-4,2.697757 0.0568,0.685345 0.26133,1.350333 0.392,2.0255 -2.66185,1.728393 -2.41785,0.817274 0.91002,2.679348 0.84579,0.652407 10.07225,-11.308945 9.22646,-11.961355 v 0 c -7.68422,-3.879948 -3.07112,-2.243833 -14.23506,-3.602929 -1.83353,0.807818 -4.00433,1.09093 -5.50058,2.423451 -3.51086,3.126676 -4.1587,7.211488 -2.59423,11.267868 0.19281,0.499917 0.24801,1.387687 0.78358,1.403504 0.48642,0.01437 0.34502,-0.91005 0.51752,-1.365076 -0.24325,-0.07848 -0.48747,-0.316875 -0.72974,-0.235444 -1.44906,0.487034 -5.7699,3.454577 -6.36524,3.963212 -4.52176,3.86321 -8.11367,7.333707 -9.27904,13.615323 -0.58726,3.165454 0.30706,6.431608 0.46059,9.647412 1.2674,2.249413 2.21382,4.712748 3.80219,6.748238 3.30205,4.23156 8.58861,7.912089 13.08856,10.658345 4.61306,2.815283 8.68586,4.839398 13.87921,6.260867 1.44091,0.39439 2.95634,0.432617 4.43451,0.648928 0.64038,0.451921 7.03155,-8.604406 6.39117,-9.056328 z" />
    <path
       style="fill:#222b00;fill-opacity:1;stroke-width:0.264583"
       id="path6319"
       d="m 31.218944,100.42264 c 5.300347,-1.643126 4.409098,-1.412822 10.941142,-3.158514 9.046596,-2.417709 12.538673,-3.365034 22.550064,-5.038532 13.089194,-2.187982 22.560637,-3.076924 35.78165,-4.571354 18.3435,-1.809496 36.77326,-2.757564 55.20576,-2.80125 2.47866,-0.0059 7.41577,0.171988 9.75337,0.245063 1.21476,0.0772 2.42953,0.154395 3.6443,0.231595 0,0 3.51247,-0.535006 3.51247,-0.535006 v 0 c -1.28014,-0.07081 -2.56028,-0.141621 -3.84043,-0.212431 -23.38568,-0.56886 -46.79074,0.489558 -70.066057,2.809012 -12.513196,1.409123 -23.860111,2.543299 -36.299026,4.513712 -11.281687,1.787099 -13.37383,2.424951 -23.342636,4.950637 -6.456992,1.635935 -6.218378,1.589802 -11.654772,3.058393 0,0 3.814165,0.508675 3.814165,0.508675 z" />
  </g>
</svg>
