<svg width="297mm" height="210mm" viewBox="0 0 297 210" xmlns="http://www.w3.org/2000/svg"><g fill="#222b00"><path d="M98.994 142.533c1.75 1.128 2.578 1.687 5.123 2.813.502.222 1.074.234 1.617.309 2.471.337 4.875.134 7.348-.067 4.405-.425 8.744-1.307 13.097-2.081.354-.06.708-.118 1.063-.177l-3.209-2.255-1.035.2c-4.284.866-8.57 1.77-12.932 2.146-2.146.143-3.198.286-5.32.154a18.382 18.382 0 01-2.072-.257c-.55-.097-1.924-.874-1.625-.4.491.776 1.55.982 2.313 1.49.213.141-.44-.262-.66-.393l-3.708-1.482zM140.582 146.43c.082 4.234.07 8.47.087 12.706.038 3.402-.079 6.807.048 10.207.056 1.5.228 3.822.332 5.327.34 4.293.43 8.598.839 12.885.27 2.54.435 5.088.514 7.64.02.937.013.488.024 1.347l3.542 1.803c-.027-.873-.01-.417-.05-1.368a127.939 127.939 0 00-.594-7.706c-.45-4.298-.622-8.615-.942-12.924-.117-1.602-.285-3.71-.343-5.31-.122-3.397.013-6.8-.04-10.197.016-4.206.003-8.412.086-12.618l-3.503-1.793z"/><g transform="matrix(1.01134 0 0 1.01607 224.897 28.526)"><circle cx="-117.84" cy="78.313" r=".049" stroke="#000" stroke-width=".265"/><path d="M-112.614 113.674a165.672 165.672 0 00-.243 6.865c-.04 2.087-.06 4.174-.073 6.26-.005 1.429-.01 2.857-.005 4.286a42.84 42.84 0 01-.244 5.252c-.168 1.245-.368 2.514-.84 3.684-.295.647-.726 1.19-1.224 1.688l3.356 2.05c.518-.545.989-1.127 1.307-1.815.49-1.208.68-2.52.844-3.807.185-1.751.311-3.514.288-5.276.005-1.43-.004-2.86-.008-4.291-.008-2.094-.015-4.188.016-6.281.05-2.264.082-4.535.324-6.788l-3.498-1.827z"/><path d="M-115.871 145.166c1.548-.156 3.1-.226 4.646-.402 1.407-.201 2.834-.169 4.245-.322 1.403-.193 2.819-.258 4.233-.301.917-.019.469-.012 1.345-.022l-3.177-2.3c-.87.02-.425.008-1.338.035-1.422.052-2.844.13-4.256.315-1.412.116-2.832.145-4.237.335-1.56.173-3.127.245-4.69.376l3.229 2.286z"/><path d="M-106.669 129.576c.044 2.27.049 4.541.055 6.812.001.5.003 1 .002 1.501 0 .831-.037 1.662-.02 2.493.004.214-.122.513.05.64 3.563 2.645 2.843 3.126 4.15 1.452 1.378-2.337 3.037-4.48 4.799-6.536.582-.503 1.146-1.729 2.086-1.69.177.007.642.298.483.22-.976-.488-1.89-1.138-2.938-1.445-.247-.072.234.458.352.687.55 1.593.595 3.29.626 4.959-.027 2.092.337 1.81 3.653 3.042.206.077.28-.34.403-.523.417-.62.772-1.278 1.16-1.915 1.412-2.13 2.754-4.415 4.663-6.153.258-.234.547-.432.82-.648.58-.31.731-.561 1.394-.32.218.08.794.48.578.392-.923-.38-1.722-1.149-2.713-1.27-.379-.046.39.659.548 1.006.166.36.282.74.422 1.11.65 1.992.805 4.087.875 6.166l3.48 1.756c-.093-2.117-.24-4.253-.862-6.292-.074-.214-.678-2.053-.884-2.23-.262-.224-3.613-3.483-5.388-2.826-.268.1-.487.302-.73.453-2.261 1.939-3.882 4.456-5.51 6.924-.41.603-.777 1.237-1.225 1.812-.072.091-.348.164-.257.235 7.019 5.417 3.232 2.894 3.068 1.679-.028-.21-.009-.422-.013-.633-.036-1.711-.08-3.441-.561-5.098-.79-2.117-.219-1.06-4.09-3.249-.176-.1-.409-.068-.605-.022-.965.226-1.483 1.257-2.122 1.896-1.73 2.08-3.38 4.226-4.871 6.486-1.157 1.084-.85.603 2.728 2.308.19.09-.11-.41-.126-.619-.108-1.33.048-2.68-.019-4.012.007-2.252.012-4.505.055-6.756l-3.516-1.792z"/><path d="M-79.742 139.097c.603-1.767 1.416-3.445 2.475-4.98.87-1.09 2.153-1.373 3.484-1.389.268.034 1.066.124 1.332.2.191.055.722.331.55.23-5.246-3.095-2.977-1.777-1.898-.816.91.845 1.246 1.883 1.412 3.075.135 1.34.137 2.683.005 4.021-.086.976-.368 1.917-.53 2.88-.08.507-.108 1.019-.13 1.53l3.516 1.81c.017-.498.036-.997.105-1.49.147-.978.429-1.93.516-2.915.134-1.364.152-2.732.034-4.098-.134-1.254-.389-2.385-1.303-3.322-1.798-1.819-4.18-3.364-6.79-3.393-1.435.108-2.77.494-3.669 1.701-1.041 1.571-1.834 3.276-2.548 5.019l3.44 1.937zM-63.082 135.734c.216-.319.422-.646.65-.956.31-.424.645-.83.967-1.247 1.04-1.346 2.052-2.77 3.46-3.769.405-.288.87-.484 1.305-.725 1.303-.205 1.42-.391 2.697.07.423.153 1.619.782 1.196.626-.761-.28-1.407-1.038-2.218-1.002-.455.02.619.676.859 1.063.24.386.379.826.568 1.24.103.454.27.9.31 1.364.203 2.416-.988 4.935-2.295 6.889-.394.589-.862 1.125-1.294 1.687-1.706 1.897-3.767 3.696-6.312 4.337-.513.13-1.05.233-1.578.188-.464-.039-.886-.288-1.33-.433.78.337 1.495 1.097 2.34 1.01.424-.043-.347-.786-.417-1.206-.079-.475-.063-.964-.022-1.443.139-1.64.776-2.806 1.578-4.195l.865-1.1-3.288-1.958-.878 1.153c-.263.455-.559.892-.787 1.365-.667 1.38-1.083 2.987-.932 4.532.046.476-.027 1.075.326 1.397 1.251 1.14 2.835 1.85 4.253 2.775.467.099.924.292 1.402.295 2.32.016 4.95-1.77 6.565-3.28.508-.476.952-1.017 1.428-1.525.443-.575.921-1.123 1.327-1.724 1.324-1.96 2.607-4.672 2.493-7.098-.023-.485-.182-.954-.273-1.431-.177-.442-.3-.91-.53-1.327-1.115-2.023-3.12-2.733-5.16-3.962-1.359-.819-2.612-.852-4.093-.385-.443.267-.913.492-1.328.8-2.157 1.607-3.531 4.03-5.278 6.026l3.424 1.95z"/><path d="M-49.63 142.145c2.45-5.988 5.815-11.527 8.992-17.143.39-.742.93-1.69 1.235-2.506.081-.218.353-.521.178-.675-1.04-.908-2.215-1.706-3.495-2.224-.248-.1-.385.375-.542.592-.21.288-.367.609-.55.913-.176.491-.403.967-.528 1.474-.68 2.75-.434 6.308.077 9.074.144.777.353 1.54.53 2.31.228 1.485.884 2.867 1.17 4.337.398 2.04.561 4.646-.525 6.535-.298.52-.82.874-1.23 1.31-1.308.59-1.478.883-2.935.727-.451-.048-1.657-.663-1.313-.367 4.93 4.237 1.734.673 1.671.277-.067-.426.165-.847.247-1.27.286-.506.523-1.043.86-1.517 1.338-1.89 3.24-3.34 4.993-4.814 2.676-2.251 1.203-.947 3.76-3.304 2.326-2.163 4.725-4.313 6.36-7.067.72-1.571 1.817-2.612-2.64-2.331-.48.03.367.89.56 1.33.234.532.48 1.057.72 1.585 1.372 2.765 2.995 5.392 4.664 7.984.98 1.772 1.72 3.83 1.099 5.865-.476 1.557-.988 1.903-2.019 3.112-.508.322-.968.736-1.523.966-.867.36-2.163.458-3.077.186-.407-.12-1.522-.732-1.114-.616 2.882.816 2.736 2.095 2.38-.158.168-.498.266-1.026.502-1.496 1.058-2.107 2.877-3.768 4.339-5.572 1.555-1.92 2.132-2.846 3.52-4.87a38.394 38.394 0 003.446-6.477c.49-1.187.852-2.417 1.349-3.6-1.112-.449-2.138-1.34-3.336-1.344-.448-.002.128.885.16 1.331.097 1.313.066 2.632.146 3.945.086 1.41.271 3.017.42 4.425.201 1.123.399 2.536.798 3.626.987 2.693 3.213 4.549 6.663 3.821 1.138-.24 1.436-1.83 2.153-2.745.718-1.423 1.533-2.801 2.152-4.27 1.53-3.627 3.132-8.981 4.2-12.694a276.207 276.207 0 003.336-12.854c.404-1.748.75-3.51 1.125-5.264.268-1.43.557-2.857.803-4.292.263-1.53.652-3.91.69-5.575.008-.336.19-.85-.11-1.003-4.637-2.355-3.844-1.814-5.011 1.506-.335 1.23-.72 2.446-1.003 3.688-2.26 9.892-2.585 20.112-2.765 30.213.05 4.25-.048 8.529.458 12.76.156 1.304.422 3.224 1.148 4.425.261.432.71.718 1.065 1.077 1.604.511 3.13 1.57 4.813 1.533.77-.017 1.134-1.056 1.595-1.674.551-.739.988-1.558 1.422-2.371 1.195-2.24 2.027-4.621 2.834-7.018.337-.97.501-1.988.79-2.971.086-.293.121-.619.302-.865.122-.166.342-.264.547-.29.296-.035 2.436.328 2.466.332.813-.083 1.748.185 2.44-.25 2.739-1.72 7-7.356 8.564-9.636 2.923-4.259 5.574-9.258 7.823-13.902 1.014-2.093 1.91-4.24 2.866-6.361 1.799-4.431 3.42-8.985 4.036-13.753.212-1.638.274-3.575.026-5.234-.088-.586-.294-1.147-.44-1.72-1.2-1.933-1.55-2.993-5.206-2.868-.877.03-1.227 1.263-1.749 1.969-2.776 3.755-4.35 8.141-6.049 12.438-2.53 6.777-4.57 13.743-5.942 20.85-.708 3.666-.885 5.425-1.363 9.07-.548 4.445-.612 8.994.31 13.397.445 2.12.725 2.682 1.448 4.667.302.627.543 1.288.905 1.882 1.594 2.614 4.847 4.4 7.47 5.544 1.276.556 2.932-.013 4.146-.264.755-.327 1.566-.547 2.266-.98 3.593-2.219 5.949-6.456 7.213-10.361.34-1.05.542-2.14.814-3.21.451-2.709 1.381-7.729-.702-10.071-.246-.276-.59-.446-.885-.67-1.435-.7-2.8-1.572-4.305-2.103-.323-.114-.696.077-1.002.23-1.657.828-2.216 2.893-2.716 4.495-.062.51-.187 1.017-.186 1.531.004 1.388.369 2.688.788 4 .755 2.364 1.829 4.578 2.918 6.8.887 1.554 1.358 2.543 2.512 3.919 2.121 2.528 5 4.318 8.202 5.212.62.173 1.258-.27 1.887-.405 2.409-.948 4.182-2.756 5.732-4.76l-3.331-1.978c-1.45 1.972-3.127 3.73-5.493 4.576l-1.786.27c.475.449 1.99 1.022 1.424 1.348-.588.34-1.107-.79-1.62-1.235-1.759-1.522-3.096-3.355-4.156-5.42-1.092-2.196-2.172-4.38-2.922-6.723-.384-1.198-.756-2.553-.774-3.832-.007-.491.105-.977.158-1.466.386-1.247.733-2.582 1.705-3.531.243-.236.522-.451.838-.574.284-.11 1.103.128.907-.105-.62-.74-1.588-1.103-2.382-1.654.32.18.687.293.96.538.701.627 1.066 1.575 1.27 2.46.564 2.464.194 4.982-.208 7.436-.26 1.058-.448 2.136-.78 3.174-1.243 3.88-3.522 7.946-7.159 10.053-.698.404-1.497.598-2.246.897-.716.113-1.423.335-2.149.34-.636.005-1.679-.913-1.882-.31-.206.61 1.17 1.46 1.642 1.021.464-.43-1.054-.707-1.51-1.145-1.277-1.227-1.391-1.788-2.193-3.362-.762-1.977-1.045-2.512-1.532-4.63-1.01-4.389-1-8.933-.528-13.39.46-3.84.565-5.204 1.281-9.08 1.312-7.103 3.294-14.079 5.856-20.83 1.649-3.958 2.188-5.687 4.317-9.267.594-1 1.247-1.97 1.985-2.868.51-.62 1.83-.864 1.74-1.66-.11-.976-1.359-1.434-2.153-2.011-.349-.254.53.682.795 1.022.177.562.417 1.107.53 1.685.321 1.628.325 3.613.172 5.232-.451 4.793-1.931 9.398-3.651 13.867-.922 2.133-1.771 4.298-2.764 6.398-2.215 4.685-4.819 9.597-7.846 13.817-1.896 2.644-5.699 7.384-8.905 9.078-.733.388-1.656.077-2.484.115-.655-.093-1.98-.388-2.71-.15-.265.086-.503.29-.656.524-.173.268-.198.607-.276.916-.248.993-.374 2.015-.681 2.994-.952 3.041-2.152 6.729-4.166 9.236-.44.549-1.604.739-1.544 1.44.08.928 1.234 1.396 1.85 2.094-.395-.315-.891-.535-1.187-.946-.807-1.12-1.156-3.154-1.346-4.4-.65-4.256-.643-8.585-.77-12.875.018-2.036-.002-4.073.056-6.109.264-9.261 1.104-18.644 4.018-27.488C.22 92.1.92 92.545-2.757 90.13c-.286-.188.262.645.287.987.056.757.012 1.52-.047 2.276-.198 2.54-.687 5.224-1.084 7.721-.34 1.77-.644 3.546-1.021 5.307-.871 4.068-2.083 8.914-3.247 12.88-1.164 3.966-2.676 8.706-4.415 12.503-.653 1.425-1.504 2.749-2.256 4.123-3.359 3.757-2.387 1.062-.58 4.846.204.428-.71-.643-.985-1.03-1.045-1.47-1.287-3.292-1.623-5.01-.175-1.514-.355-2.87-.434-4.397-.034-.643-.048-3.163-.055-3.915-.004-.461.314-1.06-.015-1.384-1.017-.998-2.436-1.48-3.654-2.219-.395 1.223-.731 2.463-1.195 3.663a35.118 35.118 0 01-3.322 6.466c-1.524 2.237-1.774 2.719-3.524 4.816-1.525 1.827-3.377 3.505-4.518 5.631-.275.512-.415 1.085-.623 1.628.186 2.915-.262 1.43 4.07 4.263 1.26.824 3.05.686 4.361.071.573-.268 1.047-.71 1.57-1.064 1.084-1.285 1.604-1.649 2.138-3.281.682-2.084.054-4.225-.921-6.09-1.69-2.582-3.348-5.193-4.737-7.953-.23-.519-.47-1.034-.69-1.557-.177-.42-.166-.962-.501-1.27-3.908-3.591-3.258-3.612-4.267-1.278-1.525 2.765-3.864 4.915-6.136 7.066-2.408 2.22-1.212 1.17-3.745 3.293-1.798 1.508-3.736 2.964-5.137 4.878-.365.5-.636 1.062-.954 1.593-.134.504-.429.991-.403 1.512.02.402.208.846.532 1.086 1.891 1.396 4.65 3.451 7.285 2.6.541-.175 1.008-.529 1.512-.793.426-.487.965-.896 1.28-1.461 1.086-1.947 1.005-4.63.615-6.74-.273-1.471-.961-2.845-1.19-4.328-.182-.76-.398-1.514-.546-2.281-.527-2.733-.807-6.144-.073-8.86.128-.475.36-.915.541-1.373.18-.266.331-.556.542-.8.884-1.022 5.127 1.272-2.757-2.284-.196-.088-.035.432-.095.639-.233.803-.76 1.825-1.094 2.538-2.984 5.738-6.197 11.354-9.14 17.114l3.378 1.883z"/></g></g><circle cx="331.354" cy="164.754" r=".049" fill="#00ff74" stroke="#000" stroke-width=".265"/><g fill="#222b00"><path d="M21.035 52.392c.52 3.481.87 6.983 1.226 10.483.321 3.109.979 6.167 1.437 9.256.076 1.261.497 2.45.783 3.669l3.591 1.736c-.276-1.23-.742-2.41-.858-3.674-.517-3.097-1.204-6.167-1.551-9.29-.354-3.465-.744-6.928-1.04-10.4l-3.588-1.78z"/><path d="M27.837 58.733c1.764-.685 3.653-1.477 5.585-1.391.478.021.946.14 1.419.21-.766-.595 3.406 1.333 2.524 1.085-.797-.224-1.467-1.069-2.29-.97-.462.056.588.734.805 1.149.729 1.388.515 1.506.493 3.115-.15.645-.243 1.307-.45 1.936-1.118 3.393-3.416 6.257-5.696 8.927-1 1.154-2.142 2.155-3.314 3.125l3.294 2.066c1.159-1.006 2.3-2.034 3.29-3.215 2.284-2.728 4.578-5.681 5.77-9.088.226-.647.34-1.328.509-1.992.04-.62.186-1.243.12-1.86-.052-.508-.254-.993-.468-1.455-1.022-2.207-2.843-2.74-5.088-4.176a6.54 6.54 0 00-1.242-.603c-.44-.163-.906-.244-1.359-.367-.49-.05-.977-.148-1.47-.151-1.992-.015-3.91.792-5.756 1.435l3.324 2.22zM46.172 70.433c3.99-1.402 7.17-4.362 10.309-7.1 1.141-1.078 1.763-1.623 2.79-2.739.531-.576 1.454-1.415 1.119-2.338-.063-.172-.216-.296-.324-.444-1.363-.712-2.677-1.527-4.089-2.135-.312-.135-1.82.054-2.048.086-1.35.193-2.52.624-3.771 1.152-.426.254-.872.475-1.276.763-2.182 1.552-4.006 3.674-5.494 5.88-.21.402-.468.78-.627 1.205-.738 1.968-.592 4.322.287 6.22.253.546.622 1.03.933 1.544 2.49 2.574 5.912 4.228 9.487 4.38.906.039 1.834.095 2.718-.108 2.784-.64 3.881-1.825 6.184-3.494 1.052-1.257 2.205-2.436 3.156-3.771 4.346-6.104 6.909-13.268 8.798-20.46.427-1.625.772-3.272 1.158-4.908.275-1.42.576-2.837.825-4.262.135-.775.794-4.98.798-6.09.01-2.638-3.113-1.764-5.17.595-1.418 1.626-1.292 4.125-1.938 6.187-.692 2.925-1.457 5.834-2.078 8.776-.706 3.342-1.318 6.705-1.903 10.07-1.088 6.263-2.073 12.801-2.666 19.14-.624 6.68-.547 8.756-.658 15.216.09 4.714-.033 9.591 1.714 14.067.364.932.79 1.864 1.402 2.654 1.583 2.042 5.107 2.858 7.057 3.65.447-.788 1.199-1.469 1.34-2.364.46-2.92-.685-9.895-1.116-12.354-1.148-6.547-2.85-12.975-4.577-19.385-.893-2.874-1.453-4.885-2.512-7.62-.749-1.933-1.65-3.966-3.075-5.504-1.217-.485-2.36-1.248-3.653-1.456-.316-.051.133.64.296.916.229.39.54.73.858 1.05 1.784 1.797 4.752 2.93 6.805 3.982 1.343.209 2.935.104 3.997-.876.174-.161.307-.363.461-.544.406-.534.828-1.075 1.304-1.55.107-.106.205-.241.347-.288.074-.025.278.141.21.105-1.091-.578-2.183-1.153-3.274-1.73 1.626 2.635 2.61 3.807 6.156 4.98.45.15.88-.348 1.32-.523 1.598-1.092 2.415-2.73 3.326-4.368.22-.395.999-.858.677-1.175-4.13-4.085-3.03-.727-2.8.81.372 9.253.179 18.53-.34 27.773-.232 2.908-.429 5.852-1.108 8.7-.118.493-.226.998-.452 1.452-.078.158-.59.257-.424.312 1.044.348 2.16.417 3.242.625.056-1.824.04-3.79.455-5.576.837-3.612 2.669-6.795 4.4-10.018.686-1.279 1.358-2.566 2.037-3.848 3.806-7.633 6.132-15.867 7.475-24.269.092-.436.612-1.015.277-1.307-.938-.82-2.207-1.628-3.439-1.455-.633.09.073 1.284.078 1.927.021 2.762-.134 5.529-.242 8.287.018 2.048-.086 4.11.115 6.154.03.309.172 1.928.628 2.23 1.333.883 2.84 1.468 4.26 2.203.457-.29.965-.51 1.371-.868 3.04-2.68 4.933-8.037 6.464-11.735.082-.168 1.21-2.744 1.731-3 .262-.13 1.093.393.806.344-.847-.145-1.789-1.12-2.499-.634-.543.372.533 1.21.746 1.834.227.662.381 1.347.572 2.02.01.046.78 3.402.885 3.611.15.302.429.56.74.69 1.46.606 2.928 1.341 4.5 1.488.347.032 2.034-2.017 2.149-2.148l.96-1.296c.286-.413.56-.834.859-1.238.252-.344 1.052-.667.792-1.005-.501-.65-1.633-1.432-2.278-.925-.559.439.93 1.082 1.324 1.674.437.656.775 1.374 1.162 2.06.785 1.141 1.053 2.575 1.804 3.735.898 1.387 4.457 1.904 4.965 1.904.477 0 .51-.81.73-1.236.264-.513.48-1.049.721-1.573 1.39-2.9 2.85-5.95 5.588-7.815.423-.288.901-.485 1.352-.728-.598-1.003 2.784.834 2.1.59-.915-.325-1.706-1.055-2.67-1.16-.131-.014.855 1.406.176 1.581-.316.081-.597-.263-.895-.394.59.298 1.819 1.557 1.772.895-.056-.79-1.24-.981-1.817-1.521-1.46-1.368-3.128-3.079-3.565-5.128-.088-.41.002-.84.003-1.26-.673-1.043 1.671-.794 1.385-.405-.343.466-1.663.045-1.615.622.127 1.514 1.405 2.693 2.009 4.085 1.96 4.522 2.135 5.713 3.535 10.53.387 1.855.864 3.693 1.159 5.565.795 5.049 1.007 10.394.116 15.45-.708 4.019-1.427 5.385-2.856 9.144-.685 1.356-2.135 5.062-3.924 5.926-.504.243-2.006-.06-1.613-.458.632-.638 2.094.157 2.626-.566.878-1.192.522-2.927.982-4.335.544-1.663 1.345-3.228 2.018-4.842 2.466-5.135 5.572-10.058 10.094-13.614 1.87-1.47 2.483-1.65 4.517-2.653l-3.135-2.07c-2.027 1.073-2.62 1.264-4.472 2.8-4.45 3.692-7.486 8.704-9.975 13.86-.285.65-3.75 7.971-3.39 9.23.541 1.894 2.297 3.251 3.81 4.506.432.36 1.207.352 1.682.05 1.75-1.109 3.064-4.591 3.815-6.138 1.369-3.638 2.202-5.351 2.885-9.232.895-5.086.635-10.514-.16-15.59-.294-1.88-.77-3.726-1.155-5.59-1.407-5.035-1.457-5.78-3.373-10.517-.556-1.374-.91-2.891-1.827-4.054-1.368-1.735-3.107-3.166-4.89-4.465-.318-.23-.836-.149-1.175.047-.311.18-.355.627-.532.94-.006.47-.107.95-.018 1.411.27 1.398 1.02 2.462 1.9 3.547 2.447 3.02 4.713 4.337 8.316 6.19.409-.022.882.156 1.227-.067.474-.306.246-1.676-.04-1.932-1.214-1.092-2.619-1.955-3.993-2.836a2.454 2.454 0 00-1.03-.385c-.412-.046-.825.086-1.237.129-.457.267-.941.493-1.37.802-2.73 1.968-4.204 5.027-5.68 7.954-.245.505-.465 1.023-.736 1.515-.206.373-.908.709-.691 1.076.607 1.03 1.858 1.504 2.71 2.341.246.243-.672-.27-.883-.544-.148-.191-1.845-3.764-1.85-3.774-1.835-3.444-2.431-5.14-6.98-6.351-.416-.111-.529.684-.78 1.036-2.303 3.218.69-.81-1.79 2.496-.338.374-.645.778-1.013 1.122-.328.307-1.248.41-1.067.822.433.983 1.681 1.351 2.381 2.165.227.263-.735-.183-.924-.474-.17-.26-.9-3.513-.928-3.633-.094-.355-.891-3.587-1.212-3.93-1.212-1.297-2.673-2.359-4.176-3.3-.282-.177-.727-.137-.996.059-.512.372-1.516 2.852-1.647 3.142-1.047 2.635-2.026 5.32-3.484 7.765-.701 1.177-1.819 2.806-2.962 3.679-.37.283-.844.396-1.266.594.818.6 1.555 1.334 2.456 1.8.283.145-.414-.502-.524-.801-.154-.418-.194-.87-.253-1.311-.272-2.043-.202-4.12-.245-6.173.092-2.75.168-5.504.328-8.252.038-.645.562-1.444.142-1.934-.907-1.058-2.24-1.843-3.604-2.104-.455-.087-.085.927-.127 1.39-.116.925-.204 1.852-.349 2.772-1.177 7.472-3.437 14.746-6.896 21.476-1.888 3.385-3.922 6.74-5.38 10.346-.471 1.167-.941 2.342-1.256 3.56-.306 1.19-.567 4.247-.698 5.576 1.212 1.06 2.287 2.304 3.637 3.18.192.125.34-.329.425-.543.337-.858.665-3.114.76-3.832.362-2.74.372-3.67.563-6.542.398-9.229.43-18.47.582-27.705-.076-2.92.52-3.377-3.958-4.452-.438-.105-.408.809-.62 1.208-.84 1.581-1.66 3.107-3.23 4.081-1.864.44-2.136.2 1.22 1.874.284.141-.431-.465-.633-.71-.319-.384-.717-.911-.956-1.366-.083-.158-.133-.332-.2-.498-1.227-.728-2.41-1.535-3.68-2.183-.108-.055-.239.065-.34.134-.68.465-1.093 1.31-1.656 1.892-.137.152-.255.323-.41.456-1.023.875-2.495.885-3.729.617.733.5 1.514.935 2.197 1.502.36.298-.83-.431-1.218-.69-.644-.429-1.51-1.14-1.99-1.774-.152-.2-.125-.537-.333-.678-1.12-.758-2.37-1.303-3.554-1.954.183.146.393.262.548.436.51.57 1.492 2.118 1.784 2.666 1.703 3.186 2.737 6.683 3.9 10.086 1.844 6.399 3.652 12.819 4.726 19.406.451 2.766 1.296 8.763.747 11.896-.13.745-.764 1.303-1.146 1.954.44.524 1.985 1.42 1.32 1.572-.788.182-1.44-.808-1.97-1.422-.658-.765-1.116-1.695-1.516-2.623-1.926-4.459-1.916-9.39-2.113-14.148-.017-6.551-.148-8.527.402-15.312.51-6.27 1.443-12.996 2.553-19.173.602-3.342 1.253-6.678 2.03-9.985.679-2.893 1.556-5.737 2.334-8.605 2.999-8.151 2.756-3.588.443-11.1-.11-.358.466.631.5 1.004.08.881-.084 1.769-.17 2.65-.322 3.317-.576 4.353-1.173 7.795-.363 1.641-.677 3.294-1.09 4.924-1.784 7.04-4.435 14.41-8.798 20.287-.964 1.3-2.144 2.421-3.216 3.632-2.396 1.641-3.336 2.679-6.18 3.24-.88.173-1.796.11-2.691.047-.858-.06-1.755-.752-2.548-.416-.455.192 1.51 1.224 1.047 1.052-.601-.225-.996-.813-1.494-1.22-.32-.485-.699-.936-.96-1.456-.897-1.786-1.082-4.038-.393-5.924.15-.411.395-.781.592-1.172 1.715-2.594 3.89-4.964 6.65-6.446 1.564-.617 3.134-1.125 4.838-1.086.305.007 1.134.309.91.102-.805-.743-1.831-1.198-2.747-1.796.14.077.308.119.42.233.632.64-.476 1.677-.802 2.057-1.013 1.177-1.532 1.627-2.692 2.759-3.107 2.762-6.335 5.688-10.424 6.825l3.294 2.26z"/><path d="M95.518 49.297c-.186-.262 2.042 1.02 1.53.77-.816-.396-1.54-1.008-2.41-1.259-.353-.101.61.457.768.787.44.92-.054 1.468-.419 2.278-.827 1.208-1.911 2.119-3.218 2.77-.343.17-.69.365-1.067.43-.254.042-.986-.25-.764-.12.924.542 1.936.916 2.904 1.373-.085-.232-.21-.454-.254-.697-.315-1.737.498-3.529 1.211-5.054.743-1.487 1.915-2.013 3.529-1.989l-3.176-2.29c-1.731.144-2.963.74-3.732 2.37-.869 1.917-1.713 4.008-1.184 6.138 1.284.82 2.497 1.761 3.851 2.458.48.248 1.63-.39 1.902-.538 1.34-.729 2.469-1.7 3.333-2.964.429-.89 1.017-1.606.65-2.67-.123-.357-.433-.637-.742-.853-1.687-1.18-3.768-2.638-5.858-3.313l3.146 2.373z"/></g><path d="M209.043 144.328c-.186-.263 2.042 1.02 1.529.77-.815-.396-1.539-1.009-2.41-1.26-.352-.1.61.457.769.788.44.92-.054 1.467-.419 2.278-.827 1.208-1.911 2.118-3.218 2.77-.343.17-.69.364-1.067.429-.254.043-.986-.25-.764-.12.924.542 1.936.916 2.903 1.374-.084-.233-.209-.454-.253-.698-.315-1.736.498-3.528 1.211-5.053.743-1.487 1.915-2.014 3.529-1.99l-3.176-2.29c-1.731.144-2.963.74-3.732 2.37-.869 1.917-1.713 4.009-1.185 6.139 1.284.82 2.498 1.76 3.852 2.458.48.247 1.63-.39 1.902-.538 1.34-.73 2.469-1.7 3.333-2.965.429-.89 1.017-1.605.65-2.67-.123-.356-.433-.636-.742-.852-1.687-1.18-3.768-2.639-5.858-3.313l3.146 2.373zM115.94 194.723c10.079-.594 20.182-.689 30.275-.802 10.075-.21 20.157-.3 30.223-.818 7.382-.381 8.98-.557 16.29-1.136 10.51-.993 21.004-2.168 31.54-2.856 6.062-.395 9.216-.493 15.233-.745 8.79-.312 17.587-.435 26.383-.387 2.124.016 4.249.063 6.373.081.784.008 1.568.011 2.352.013l-3.181-2.312-2.34-.006c-2.072-.008-4.144.002-6.215.04-8.637.138-17.272.378-25.902.75-7.763.36-15.536.714-23.282 1.36-7.821.652-15.614 1.648-23.436 2.293-2.662.216-5.322.465-7.986.649-12.88.885-25.793 1.054-38.698 1.156-10.27.118-20.539.317-30.809.409l3.18 2.31zM281.957 186.587c-.5-1.037-1.582-2.659-1.362-3.832.048-.253.176-.484.265-.726.2-.199.37-.434.6-.596.822-.58 2.033-.931 3.04-.792.833.115 1.187.44 1.866.872-.89-.374-1.705-1.094-2.67-1.122-.361-.011.232.691.266 1.05.038.401.005.808-.052 1.206-.183 1.272-.756 2.3-1.412 3.375-.548.643-1.098 1.433-1.972 1.66-.195.051-.413.09-.604.027-.22-.072-.773-.497-.558-.411.93.372 1.813.852 2.72 1.277-.704-1.108-.39-.532-.942-1.728l-3.528-1.616c.526 1.253.23.644.888 1.827 1.306.895 2.579 1.843 3.918 2.687.21.132.46.213.707.227 1.141.068 2.098-1.261 2.709-2.015.885-1.489 1.66-3.041 1.603-4.83-.013-.403.096-.91-.19-1.194-1.145-1.134-2.6-1.905-3.899-2.858-.305-.154-.592-.352-.915-.463-1.416-.488-3.115-.11-4.294.793-.266.203-.46.486-.691.729-.242.625-.483 1.02-.4 1.72.034.284.18.543.28.811.293.792.646 1.557 1.025 2.311l3.602 1.61z" fill="#222b00"/><path d="M194.829 87.441c-.644-.938-1.204-1.94-1.931-2.816-1.254-1.51-2.57-2.975-3.998-4.321-1.8-1.7-3.745-3.24-5.667-4.8-3.817-3.18-7.915-6-11.772-9.127-1.175-.954-2.277-1.994-3.415-2.99.25-.155.48-.35.753-.464 2.262-.953 3.422-.855 5.59-2.602 2.223-1.791 4.384-4.581 5.43-7.284.444-1.152.522-2.414.784-3.62-.09-4.34.168-3.9-.588-7.405-.141-.653-.41-1.278-.512-1.939-.024-.155.134-.608.144-.45.058.897-.074 1.801 0 2.698.057.685.261 1.35.392 2.025-2.662 1.728-2.418.817.91 2.68.846.652 10.072-11.31 9.226-11.962-7.684-3.88-3.07-2.244-14.235-3.603-1.833.808-4.004 1.091-5.5 2.424-3.511 3.126-4.159 7.211-2.594 11.267.192.5.248 1.388.783 1.404.487.014.345-.91.518-1.365-.244-.079-.488-.317-.73-.236-1.45.488-5.77 3.455-6.365 3.964-4.522 3.863-8.114 7.333-9.28 13.615-.587 3.165.308 6.432.461 9.647 1.268 2.25 2.214 4.713 3.802 6.749 3.303 4.231 8.59 7.912 13.089 10.658 4.613 2.815 8.686 4.84 13.88 6.26 1.44.395 2.956.433 4.434.65.64.452 7.031-8.605 6.39-9.057z" fill="none"/><path d="M31.219 100.423c5.3-1.643 4.409-1.413 10.941-3.159 9.047-2.418 12.539-3.365 22.55-5.038 13.09-2.188 22.56-3.077 35.782-4.572a576.394 576.394 0 0155.206-2.801c2.478-.006 7.415.172 9.753.245l3.644.232 3.513-.535-3.84-.213c-23.386-.569-46.791.49-70.067 2.81-12.513 1.408-23.86 2.543-36.299 4.513-11.282 1.787-13.374 2.425-23.342 4.95-6.457 1.637-6.219 1.59-11.655 3.059l3.814.509z" fill="#222b00"/></svg>