<svg xmlns="http://www.w3.org/2000/svg" data-name="Layer 1" width="570.59" height="484.225"><path d="M91.528 59.812c-31.828 15.917-44.89 60.782-26.582 91.297 30.986 51.642 24.955 122.843-14.274 168.537-20.77 24.193-19.902 62.83-1.283 88.716s51.954 38.988 83.793 37.258 61.941-16.904 85.821-38.034c12.092-10.7 4.846-32.139-8.745-40.856s-30.604-9.382-46.303-13.151-32.491-13.28-35.027-29.225c-14.045-88.344-28.091-176.687-37.4-264.542zM325.309 251.778a18.682 18.682 0 00-12.666-4.544c-6.025.28-10.9 4.656-13.98 9.553a33.146 33.146 0 00-4.416 14.664c-1.97 6.928-1.65 14.621 2.911 20.43 3.224 4.74 9.57 4.521 14.556 3.289 8.472-2.25 13.403-10.762 16.237-18.489 2.603-7.995 3.689-18.364-2.642-24.903z" fill="#fdfd09"/><path d="M569.14 90.055c-1.825-13.516-3.687-27.163-8.024-40.14-10.14-35.168-49.98-45.529-82.353-48.459-42.354-4.536-84.695 2.537-126.702 7.388-26.954 3.404-53.988 6.165-81.154 7.045-28.465 1.719-56.948.534-85.435.695-13.542-.042-27.055 1.252-40.592 1.16-14.935-.29-30.482-2.05-44.962-3.709a182.787 182.787 0 00-19.822-2.15c2.808-.603 5.612-1.158 8.21-1.703-11.201.012-23.106-.476-33.02 5.597-20.072 11.215-30.813 35.766-34.99 57.483-3.515 20.996 1.944 42.059 8.042 62.056 3.678 12.555 7.364 25.14 9.87 37.99 2.396 13.415 4.117 38.928 1.643 51.778-2.948 21.633-14.716 37.175-22.954 59.095C4.34 315.783-3.814 350.365 1.813 384.388a132.12 132.12 0 0022.368 54.91c7.909 11.717 19.091 20.567 31.53 27.099 17.136 8.68 36.196 12.356 55.057 15.12 15.952 2.322 32.1 2.685 48.197 2.708 14.414-.107 28.854-.285 43.222-1.525 26.175-2.135 49.487-7.842 77.018-14.41 32.464-7.513 64.7-16.108 96.06-27.44a267.078 267.078 0 0030.705-13.875c10.194-5.778 20.053-12.138 29.844-18.57 14.762-9.984 29.451-20.22 42.5-32.41 16.347-15.584 31.63-32.542 42.924-52.207 11.391-19.853 18.625-41.745 26.671-63.088 7.032-19.234 11.871-39.177 15.852-59.242 4.394-22.194 7.164-44.692 6.796-67.346-.091-14.684.187-29.442-1.417-44.057zm-9.04 69.619c-1.299 15.914-3.728 28.502-7.033 46.021-4.075 19.99-9.275 39.763-16.622 58.816-6.15 15.982-11.312 30.628-17.561 43.44-13.786 27.614-31.054 46.602-54.33 67.365-11.01 9.633-24.567 18.505-39.09 28.283-15.526 10.364-31.585 19.952-48.996 26.822-27.6 10.57-69.513 21.806-102.887 29.083-18.416 4.228-36.726 9.047-55.443 11.79-16.505 2.69-40.993 3.846-61.736 3.603-20.255-.165-38.454-1.163-55.6-4.606-11.638-2.06-23.242-4.711-34.198-9.227-8.429-3.91-20.967-10.403-28.514-19.32A119.582 119.582 0 0111.21 382.26l-.635-4.8c-.43-4.206-.683-8.427-.727-12.655.371-11.857 1.075-21.65 2.696-30.197a261.482 261.482 0 0112.63-43.562c3.247-9.564 9.03-20.757 14.415-32.958 4.775-10.244 8.814-20.912 9.867-32.247l-.173 1.29c.498-3.968.231-1.255.64-4.973a130.862 130.862 0 00.784-18.369 221.163 221.163 0 00-3.044-31.681c-2.342-13.703-6.165-27.103-9.907-40.476-8.93-29.153-11.93-51.836-.856-80.343 3.85-10.874 13.222-28.807 28.14-34.918a63.128 63.128 0 0112.49-3.914c2.758.451 5.493 1.064 8.215 1.68 18.757 5.27 37.705 10.326 57.127 12.412 16.467 1.605 33.06.592 49.578.81 15.508-.041 31.006.67 46.514.655 21.693-.332 43.4-1.025 65.037-2.66 49.99-4.113 99.49-14.33 149.757-14.789 29.315.756 56.24 2.5 79.96 17.33 12.257 7.9 18.323 20.36 22.056 39.208a221.265 221.265 0 014.985 47.703c.194 14.954.248 29.934-.66 44.868z"/><path d="M296.398 181.5c-6.714-12.761-19.014-21.381-31.037-28.744-.214-.129-.422-.266-.635-.395 2.454-11.242 3.625-22.751 1.792-34.204-2.091-16.365-7.352-34-20.779-44.607-11.402-7.257-25.97-8.973-38.972-5.628-10.288 2.934-19.237 9.39-26.714 16.996-10.88 1.84-21.789 4.657-30.564 11.564a67.325 67.325 0 00-17.515 22.002c-5.406-2.655-10.81-5.584-16.862-5.752a15.842 15.842 0 00-15.305 15.153c-.321 12.264 10.508 21.197 21.663 27.342-.704 5.746-1.085 11.49-1.219 17.091a69.234 69.234 0 0016.99 45.645 88.131 88.131 0 0018.562 14.661c11.017 6.214 24.486 5.853 36.522 3.238 12.378-3.596 24.453-9.01 34.648-16.98a114.116 114.116 0 0014.252-14.906c12.433 6.394 27.524 14.236 40.864 11.272 15.12-4.812 21.843-19.452 14.31-33.748zM123.35 143.726c-8.418-4.284-18.396-11.72-14.94-19.909.696-2.563 3.169-4.556 6.365-5.86 3.553-1.22 7.34-.242 10.904.443l5.745 1.186a101.43 101.43 0 00-8.074 24.14zm50.457 82.899c-6.626-.414-9.758-1.262-17.364-6.545 4.055-6.717-1.536 11.197 3.388 7.745-.232.607 8.737 3.124 9 3 3.443-1.063 4.442-1.3 9-1 5.21.39 17.324-21.713 24.295-10.617.292.436.567.884.847 1.328a86.55 86.55 0 01-3.717 1.56c-10.692 3.978-14.872 4.95-25.449 4.529zm45.48-15.332l-.02.015a101.205 101.205 0 01-15.893 9.052 38.327 38.327 0 00-1.93-7.144 33.322 33.322 0 00-9.948-13.41c-5.802-4.911-13.932-7.457-21.352-5.122-9.895 3.574-12.537 15.134-14.622 24.754a53.102 53.102 0 01-19.579-23.993 58.5 58.5 0 01-4.385-20.267 137.661 137.661 0 01.66-14.768c.63.27 1.253.534 1.856.784 33.17 14.914 68.19 23.322 97.383 37.799a88.516 88.516 0 01-12.17 12.3zm-68.566-56.96c6.021-8.245 2.092 1.208 10.11 7.492 4.754 4.086 19.488-8.428 20.339-3.088a56.31 56.31 0 01.346 6.985c-1.216-.436-2.432-.868-3.644-1.313-9.038-3.39-18.097-6.728-27.151-10.076zm89.027 33.413c-5.815-2.751-10.735-4.916-17.886-7.69-12.771-5.006-25.845-9.177-38.768-13.765 3.054-8.3 2.544-18.578-1.022-24.564-3.517-6.822-12.719-10.056-19.382-5.811-6.66 3.838-9.958 11.256-12.275 18.303-5.573-2.06-11.148-4.117-16.706-6.216 2.296-15.081 7.886-36.803 22.136-49.198 6.35-5.409 14.248-8.955 22.305-11.898-.61.658-1.212 1.32-1.801 1.99-.478.55-.941 1.112-1.416 1.663a108.22 108.22 0 015.532-4.48 425.73 425.73 0 016.585-2.246q-2.197.319-4.417.664c.585-.412 1.165-.823 1.783-1.235 10.895-6.782 19.765-10.617 32.096-9.89 5.247.02 9.75 1.301 16.353 3.92.795.359 2.162.977 2.65 1.228a26.6 26.6 0 013.842 2.36c8.827 8.221 12.786 19.597 15.767 35.308a85.363 85.363 0 011.238 19.403 68.796 68.796 0 01-.774 7.539l.194-1.444c-.253 1.466-.53 2.956-.826 4.456-.336-.221-.676-.438-1.011-.66.313.328.637.645.951.972-2.278 11.474-5.727 23.52-9.263 30.556a102.913 102.913 0 01-5.885 10.735zm46.776 9.904c-2.212 4.374-8.547 5.874-10.414 5.238-11.78-3.008-14.147-4.715-24.075-9.212l-2.68-1.3a111.463 111.463 0 0012.887-30.052q.945-3.403 1.772-6.852c.13.12.254.248.384.37 15.941 14.386 28.337 32.756 22.126 41.808z"/><path d="M231.746 106.021c-1.984-4.163-5.818-8.035-10.536-8.7a13.58 13.58 0 00-5.896.86 12.62 12.62 0 016.206 1.186c6.974 4.743 6.927 13.7 4.322 18.84-4.244 8.565-11.953 9.678-18.075 8.879-1.012.137-5.209-3.323-5.91-7.115-1.378-6.244 7.47-12.625 12.455-17.558-6.92 3.512-16.224 6.859-18.21 15.239-1.215 6.272 2.228 13.067 7.603 16.351a21.748 21.748 0 0020.384-1.699c8.422-5.388 12.077-17.22 7.657-26.283zM397.595 72.095c-7.9.195-7.879 11.767 0 11.985 7.899-.196 7.878-11.768 0-11.985zM345.952 131.483c-7.899.196-7.878 11.768 0 11.985 7.9-.195 7.879-11.768 0-11.985zM472.476 149.558c-7.899.196-7.878 11.768 0 11.985 7.9-.196 7.879-11.768 0-11.985zM113.561 407.77c-7.898.196-7.878 11.768 0 11.985 7.9-.196 7.879-11.768 0-11.985zM211.682 296.739c-7.899.196-7.878 11.768 0 11.985 7.9-.196 7.879-11.768 0-11.985zM392.43 325.142c-7.899.196-7.878 11.768 0 11.985 7.9-.196 7.879-11.768 0-11.985zM95.487 283.828c-7.9.196-7.879 11.768 0 11.985 7.899-.195 7.878-11.768 0-11.985zM384.684 208.947c-7.899.196-7.878 11.768 0 11.985 7.9-.196 7.879-11.768 0-11.985zM276.235 381.949c-7.899.196-7.878 11.768 0 11.985 7.9-.196 7.879-11.768 0-11.985zM339.294 265.251c-6.23-7.92-16.88-14.805-27.25-11.696-4.952 1.423-8.248 5.636-10.723 9.92a65.839 65.839 0 00-1.945 3.578c.445-.484.896-.964 1.342-1.447 7.29-8.1 14.263-9.972 21.692-4.5 5.013 4.01 9.31 8.57 10.479 15.91a28.21 28.21 0 01-1.11 12.631c-.101.316-.203.606-.296.865-2.09 3.92-1.323 2.821-4.974 6.065-4.748 3.111-4.43 2.602-8.827 4.377-3.346 1.144-3.553.962-4.362.988-.316-.003-.63-.024-.945-.054-.429-.067-1.71-.263-2.372-.435-2.958-.539-7.009-4.375-9.32-11.105-.588-2.949.133-7.587 1.293-11.433 1.745-4.825 4.39-9.266 6.628-13.87-6.716 7.31-14.077 15.41-14.37 25.895a26.623 26.623 0 008.401 17.628 22.038 22.038 0 0010.942 4.29c11.092.11 23.741-5.566 28.975-15.74 4.42-10.121 3.322-22.912-3.258-31.867zM498.248 67.994a15.14 15.14 0 00-12.39-2.24c-3.552 1.145-5.963 4.048-7.94 7.128-4.65 4.927-8.665 11.275-4.206 17.437 6.027 6.774 17.768 5.879 23.974-.229 6.156-5.527 8.37-17.015.562-22.096zM494.3 80.288c-1.313 3.089-7.198 9.493-14.736 7.033-1.828-.495-2.563-1.178-3.228-3.296-.578-3.905 1.426-7.636 3.411-11.202 4.187-3.082 8.442-4.313 12.964-.698 2.983 3.098 3.192 3.003 1.59 8.163zM201.712 370.804a17.74 17.74 0 00-5.987-.014 18.9 18.9 0 013.866 1.316 9.745 9.745 0 016.153 9.147c-.513 7.334-5.563 10.888-10.214 12.169-2.477.638-7.9.956-10.37.177-.678-.398-2.806-1.603-3.033-2.211.62.87-.34-.5-.482-.88-.202-.613-1.08-3.446-.827-4.719.604-4.79 6.789-10.303 10.953-14.438-6.163 2.947-13.299 5.819-16.265 12.471a15.006 15.006 0 00-.192 10.146 14.081 14.081 0 006.703 7.249c4.865 2.117 10.64 1.98 15.715.696 5.943-1.935 11.072-6.336 13.052-12.366 2.992-7.408-.647-17.318-9.072-18.743zM85.158 77.259c-7.899.195-7.878 11.768 0 11.985 7.9-.196 7.879-11.768 0-11.985z"/></svg>